<svg fill="none" height="967" viewBox="0 0 992 967" width="992" xmlns="http://www.w3.org/2000/svg"><g fill="#000"><path clip-rule="evenodd" d="m294.2 913.695c-14.725 15.52-50.04 19.08-68.064-1.154-8.1-9.093-12.707-22.651-10.382-42.683-16.92 4.422-52.605 3.922-59.988-33.455-18.458 1.923-54.104-6.691-49.028-56.527-16.151-4.807-44.876-23.88-30.5712-61.718-20.5727-1.923-55.2579-19.381-29.417-73.831-9.998-2.115-30.4553-12.113-32.3011-35.185-1.8875-23.594 7.8057-33.677 13.9215-40.038 1.36-1.415 2.5432-2.645 3.3826-3.8-10.9593-2.499-32.647148-14.881-31.7242583-44.414.8238863-26.364 15.4751583-33.9 22.5224583-37.524 2.8204-1.451 4.4229-2.275 3.4337-3.429-8.8443-2.5-26.0716152-14.766-24.22584-43.837.76908-10.383 8.42134-31.955 32.87794-35.185-17.3042-17.112-37.95383-57.45 17.881-81.907-11.7284-19.611-21.8033-61.257 31.7243-70.947-5.1913-9.806-11.9976-33.455 2.3072-49.605 14.7967-16.706 23.6687-17.218 35.1147-17.878 2.385-.138 4.883-.282 7.569-.58 2.884.384 9.69 1.73 13.843 4.038-8.267-15.382-14.189-50.067 28.264-65.756 7.691-1.923 26.418-3.461 39.799 5.768-3.076-17.881 1.039-55.489 42.107-62.8721 5.961-1.7304 22.496-1.4997 40.953 13.2665-.384-18.0732 11.075-54.2197 59.988-54.2197 7.499.5768 25.495 5.768 37.493 21.9186 2.884-17.4964 19.957-50.06674 65.179-40.3764 5.768.00001 20.995 5.88344 35.762 29.4171 4.614-12.4975 22.957-35.87734 59.411-29.4171 10.19 1.92269 32.647 13.3819 40.953 43.8373 9.998-16.7274 40.146-41.9915 80.753-9.2289 5.576 5.3835 16.035 20.5343 13.266 38.0692 14.42-10.1903 49.952-22.3801 76.715 10.3825 5.768 8.0753 12.113 19.035 8.076 39.223 17.304-6.922 55.835-11.421 71.524 25.956 2.115 4.23 5.422 16.612 1.73 32.301 20.188-8.652 67.14 11.536 49.605 57.681 21.342 1.73 60.565 25.725 30.571 73.254 32.301-6.345 68.063 42.684 26.533 77.292 26.533 6.345 50.762 49.605 11.536 81.33 11.921 5.575 33.916 23.764 26.533 51.912-2.115 7.883-10.844 25.149-28.84 31.148 11.536 8.652 30.225 33.339 12.69 62.872-5.191 7.306-18.804 20.995-31.725 17.304 10.191 8.652 26.764 32.762 11.537 59.988-4.807 7.114-17.997 20.88-32.302 19.034 5.961 18.073 6.461 55.95-39.222 62.872 5.768 10.383 8.767 35.877-25.38 54.797-6.729 2.499-21.572 5.998-27.11 0 .193 19.803-11.767 56.296-61.141 43.837 1.923 10.19 1.038 33.801-17.881 46.721-10.767 8.075-38.646 18.227-64.026-5.768-4.037 42.107-57.334 73.831-102.094 27.687-6.537 5.383-21.227 16.035-27.687 15.573-5.575-.398-3.783-6.981-1.983-13.597.286-1.051.573-2.102.829-3.13.568-2.269 1.157-5.295 1.858-8.9 2.508-12.887 6.456-33.18 16.023-52.818 10.96-22.496 11.537-69.217-50.182-86.521-14.42 44.414-66.678 141.202-162.659 168.427-19.996 4.615-61.256 1.154-66.332-49.605zm235.913-157.468c20.957 4.615 87.559 13.728 186.308 13.267 14.997 0 23.073-9.229 25.957-24.803 2.114-5.191 2.076-18.227-14.997-28.84-9.422-3.653-29.764-11.882-35.762-15.574-5.999-3.692-9.037-8.46-9.806-10.383l-1.154-6.344c17.689 1.922 49.029 5.191 52.49 4.614.404-.067.84-.127 1.296-.189 3.839-.526 9.086-1.244 9.086-8.463 0-.59.019-1.161.037-1.719.126-3.808.232-7.02-5.805-11.548-4.23-4.806-19.15-12.574-44.991-5.191-4.806 1.731-17.304 5.653-28.84 7.499-3.461 0-8.998-1.846-3.461-9.229 6.922-9.229 29.994-28.841 32.301-29.417 4.23-2.884 18.227-8.768 40.377-9.229-1.539-4.422-5.999-14.42-11.536-19.035h-9.806c-1.538-.192-5.307-1.269-8.075-4.038-2.692-.961-10.729-1.499-21.342 4.038-5.961.577-16.612-1.153-11.536-12.69 1.922-4.806 17.534-16.496 64.602-24.802 1.538-.385 3.576-2.192-.577-6.345-1.278-1.278-4.97-3.676-9.922-6.892-15.154-9.842-42.107-27.346-47.759-43.867-3.268-6.153-6.575-21.688 6.345-34.608.577-1.731 1.385-5.999 0-9.229-1.384-3.23-30.955-31.725-45.567-45.568l-4.038-6.345c-1.154-1.73-4.499-3.922-8.652 1.154s-16.343 8.652-21.919 9.806c-8.652.769-27.456 1.615-33.454-1.154l-7.499 22.495c13.267-1.538 45.798-1.153 69.794 12.69 5.96 4.422 13.292 15.474 1.792 25.474-.276.023-.543.046-.802.068-5.364.455-7.213.612-14.257-2.47-.795-.347-1.726-.785-2.79-1.284-11.291-5.303-37.502-17.613-73.348-3.907l-29.417 12.113c8.075 19.804 10.613 64.833-43.838 86.521v2.884c11.536 11.921 30.225 44.875 12.69 81.329 19.035 12.498 55.027 49.49 46.721 97.481z" fill-rule="evenodd"/><path d="m568 502.262c-18.895 6.749-30.388 8.63-44.809 12.283 0 5.192 27.687 25.38 58.835 27.687 24.918 1.846 44.99-3.461 51.912-6.345 0-4.125-3.708-10.202-5.438-12.125-16.151-19.034-24.835-19.5-33.785-22.483-11.215-3.739-19.715-1.517-26.715.983z"/></g></svg>