<svg fill="none" height="918" viewBox="0 0 3135 918" width="3135" xmlns="http://www.w3.org/2000/svg"><circle cx="458" cy="460" fill="#ffd816" r="458"/><circle cx="2676" cy="459" fill="#ffd816" r="459"/><path d="m457 2h2144c41.42 0 75 33.5786 75 75v766c0 41.421-33.58 75-75 75h-2144z" fill="#ffd816"/><g fill="#000"><path d="m949.6 747 10.688-32h7.232l-10.88 32zm-21.44 0 10.432-32h6.336l-10.304 32zm-.64 0-10.88-32h7.232l10.432 32zm22.016 0-10.24-32h6.336l10.432 32zm52.254 0 10.69-32h7.23l-10.88 32zm-21.442 0 10.432-32h6.336l-10.304 32zm-.64 0-10.88-32h7.232l10.432 32zm22.012 0-10.236-32h6.336l10.43 32zm52.26 0 10.68-32h7.24l-10.88 32zm-21.44 0 10.43-32h6.33l-10.3 32zm-.64 0-10.88-32h7.23l10.43 32zm22.01 0-10.24-32h6.34l10.43 32zm26.08.896c-1.24 0-2.31-.427-3.2-1.28-.86-.896-1.28-1.963-1.28-3.2s.42-2.304 1.28-3.2c.89-.896 1.96-1.344 3.2-1.344 1.23 0 2.3.448 3.2 1.344.89.896 1.34 1.963 1.34 3.2s-.45 2.304-1.34 3.2c-.9.853-1.97 1.28-3.2 1.28zm14.62-.896v-35.392c0-3.371.83-5.952 2.49-7.744 1.71-1.835 4.27-2.752 7.68-2.752 1.11 0 2.28.192 3.52.576 1.28.341 2.5.811 3.65 1.408l-2.62 5.312c-.82-.384-1.54-.661-2.18-.832-.6-.171-1.13-.256-1.6-.256-1.28 0-2.24.427-2.88 1.28-.6.811-.9 2.155-.9 4.032v34.368zm-5.51-26.112v-5.888h21.06v5.888zm26.87 26.112v-44.8h7.17v44.8zm29.84.768c-3.2 0-6.06-.704-8.57-2.112-2.48-1.451-4.42-3.435-5.83-5.952-1.4-2.517-2.11-5.419-2.11-8.704s.68-6.187 2.05-8.704c1.41-2.517 3.35-4.48 5.82-5.888 2.48-1.451 5.32-2.176 8.52-2.176s6.03.725 8.51 2.176c2.47 1.408 4.39 3.371 5.76 5.888 1.41 2.517 2.11 5.419 2.11 8.704s-.68 6.187-2.05 8.704c-1.36 2.517-3.28 4.501-5.76 5.952-2.47 1.408-5.29 2.112-8.45 2.112zm0-6.592c1.75 0 3.31-.427 4.68-1.28 1.36-.896 2.43-2.091 3.2-3.584.76-1.536 1.15-3.307 1.15-5.312s-.41-3.755-1.22-5.248c-.77-1.536-1.83-2.731-3.2-3.584-1.36-.896-2.94-1.344-4.73-1.344-1.8 0-3.38.427-4.74 1.28-1.37.853-2.43 2.048-3.2 3.584s-1.15 3.307-1.15 5.312.38 3.776 1.15 5.312c.81 1.493 1.9 2.688 3.26 3.584 1.41.853 3.01 1.28 4.8 1.28zm43.91 5.824-.38-5.888v-26.112h7.1v32zm-22.14-15.616v-16.384h7.16v16.384zm7.16 0c0 2.517.3 4.48.9 5.888s1.41 2.389 2.43 2.944c1.07.555 2.29.832 3.65.832 2.43.043 4.31-.747 5.63-2.368 1.33-1.621 1.99-3.947 1.99-6.976h2.68c0 3.371-.51 6.272-1.53 8.704-.98 2.389-2.39 4.224-4.23 5.504-1.79 1.237-3.96 1.856-6.52 1.856-2.52 0-4.7-.512-6.53-1.536-1.79-1.024-3.18-2.624-4.16-4.8s-1.47-4.971-1.47-8.384v-1.664zm34.4-1.408c0-3.456.66-6.293 1.99-8.512 1.32-2.219 3.02-3.861 5.12-4.928 2.13-1.109 4.35-1.664 6.65-1.664v6.848c-1.96 0-3.82.277-5.57.832-1.7.512-3.09 1.365-4.16 2.56-1.06 1.195-1.6 2.773-1.6 4.736zm-4.73 17.024v-32h7.16v32zm23.69 0v-32h7.11v32zm3.59-38.08c-1.15 0-2.16-.405-3.01-1.216-.81-.853-1.22-1.856-1.22-3.008s.41-2.133 1.22-2.944c.85-.811 1.86-1.216 3.01-1.216s2.13.405 2.94 1.216c.85.811 1.28 1.792 1.28 2.944s-.43 2.155-1.28 3.008c-.81.811-1.79 1.216-2.94 1.216zm23.61 38.848c-2.13 0-4.09-.32-5.88-.96-1.8-.64-3.33-1.536-4.61-2.688-1.28-1.195-2.26-2.581-2.95-4.16l6.21-2.752c.64 1.195 1.58 2.197 2.82 3.008 1.28.811 2.69 1.216 4.22 1.216 1.67 0 2.99-.277 3.97-.832 1.02-.597 1.54-1.408 1.54-2.432 0-.981-.39-1.728-1.16-2.24-.76-.555-1.85-1.003-3.26-1.344l-3.01-.832c-3.03-.768-5.4-1.984-7.1-3.648-1.71-1.707-2.56-3.648-2.56-5.824 0-3.2 1.02-5.675 3.07-7.424 2.09-1.749 5.08-2.624 8.96-2.624 1.96 0 3.75.299 5.38.896 1.66.555 3.09 1.365 4.28 2.432 1.2 1.024 2.03 2.24 2.5 3.648l-5.95 2.688c-.43-1.067-1.24-1.877-2.43-2.432-1.2-.597-2.52-.896-3.97-.896s-2.58.32-3.39.96c-.82.597-1.22 1.451-1.22 2.56 0 .64.36 1.237 1.09 1.792.72.512 1.77.939 3.13 1.28l3.78.896c2.09.512 3.8 1.323 5.12 2.432 1.32 1.067 2.3 2.283 2.94 3.648.64 1.323.96 2.667.96 4.032 0 1.92-.55 3.605-1.66 5.056-1.07 1.451-2.54 2.581-4.42 3.392-1.87.768-4.01 1.152-6.4 1.152zm18.23-.768v-44.8h7.17v44.8zm21.7 0v-16.384h7.17v16.384zm0-16.384c0-2.56-.3-4.523-.9-5.888-.6-1.408-1.43-2.389-2.49-2.944-1.03-.555-2.22-.832-3.59-.832-2.43-.043-4.31.747-5.63 2.368-1.28 1.621-1.92 3.947-1.92 6.976h-2.75c0-3.371.49-6.251 1.47-8.64 1.02-2.432 2.45-4.267 4.29-5.504 1.83-1.28 4.01-1.92 6.53-1.92 2.51 0 4.69.512 6.52 1.536 1.84 1.024 3.23 2.624 4.16 4.8.99 2.133 1.48 4.928 1.48 8.384v1.664zm19.16-.64c0-3.456.66-6.293 1.99-8.512 1.32-2.219 3.02-3.861 5.12-4.928 2.13-1.109 4.35-1.664 6.65-1.664v6.848c-1.96 0-3.82.277-5.57.832-1.7.512-3.09 1.365-4.16 2.56-1.06 1.195-1.6 2.773-1.6 4.736zm-4.73 17.024v-32h7.16v32zm37.97.768c-3.2 0-6.06-.704-8.58-2.112-2.48-1.451-4.42-3.435-5.82-5.952-1.41-2.517-2.12-5.419-2.12-8.704s.69-6.187 2.05-8.704c1.41-2.517 3.35-4.48 5.83-5.888 2.47-1.451 5.31-2.176 8.51-2.176s6.03.725 8.51 2.176c2.47 1.408 4.39 3.371 5.76 5.888 1.41 2.517 2.11 5.419 2.11 8.704s-.68 6.187-2.05 8.704c-1.36 2.517-3.28 4.501-5.76 5.952-2.47 1.408-5.29 2.112-8.44 2.112zm0-6.592c1.74 0 3.3-.427 4.67-1.28 1.36-.896 2.43-2.091 3.2-3.584.77-1.536 1.15-3.307 1.15-5.312s-.41-3.755-1.22-5.248c-.76-1.536-1.83-2.731-3.2-3.584-1.36-.896-2.94-1.344-4.73-1.344s-3.37.427-4.74 1.28c-1.36.853-2.43 2.048-3.2 3.584s-1.15 3.307-1.15 5.312.38 3.776 1.15 5.312c.81 1.493 1.9 2.688 3.27 3.584 1.4.853 3 1.28 4.8 1.28zm37.18 6.592c-3.2 0-6.06-.704-8.57-2.112-2.48-1.451-4.42-3.435-5.83-5.952-1.4-2.517-2.11-5.419-2.11-8.704s.68-6.187 2.05-8.704c1.41-2.517 3.35-4.48 5.82-5.888 2.48-1.451 5.32-2.176 8.52-2.176s6.03.725 8.51 2.176c2.47 1.408 4.39 3.371 5.76 5.888 1.41 2.517 2.11 5.419 2.11 8.704s-.68 6.187-2.05 8.704c-1.36 2.517-3.28 4.501-5.76 5.952-2.47 1.408-5.29 2.112-8.45 2.112zm0-6.592c1.75 0 3.31-.427 4.68-1.28 1.36-.896 2.43-2.091 3.2-3.584.76-1.536 1.15-3.307 1.15-5.312s-.41-3.755-1.22-5.248c-.77-1.536-1.83-2.731-3.2-3.584-1.36-.896-2.94-1.344-4.73-1.344-1.8 0-3.38.427-4.74 1.28-1.37.853-2.43 2.048-3.2 3.584s-1.15 3.307-1.15 5.312.38 3.776 1.15 5.312c.81 1.493 1.9 2.688 3.26 3.584 1.41.853 3.01 1.28 4.8 1.28zm35.21 6.592c-3.37 0-5.96-.832-7.75-2.496-1.75-1.707-2.62-4.139-2.62-7.296v-32.96h7.1v31.616c0 1.493.34 2.624 1.03 3.392.72.768 1.77 1.152 3.13 1.152.43 0 .9-.085 1.41-.256s1.09-.491 1.73-.96l2.62 5.44c-1.11.768-2.22 1.344-3.33 1.728-1.1.427-2.21.64-3.32.64zm-15.68-26.624v-6.144h21.05v6.144zm39.71 26.624c-2.13 0-4.09-.32-5.88-.96-1.8-.64-3.33-1.536-4.61-2.688-1.28-1.195-2.26-2.581-2.95-4.16l6.21-2.752c.64 1.195 1.58 2.197 2.82 3.008 1.28.811 2.69 1.216 4.22 1.216 1.67 0 2.99-.277 3.97-.832 1.02-.597 1.54-1.408 1.54-2.432 0-.981-.39-1.728-1.16-2.24-.76-.555-1.85-1.003-3.26-1.344l-3.01-.832c-3.03-.768-5.4-1.984-7.1-3.648-1.71-1.707-2.56-3.648-2.56-5.824 0-3.2 1.02-5.675 3.07-7.424 2.09-1.749 5.08-2.624 8.96-2.624 1.96 0 3.75.299 5.38.896 1.66.555 3.09 1.365 4.28 2.432 1.2 1.024 2.03 2.24 2.5 3.648l-5.95 2.688c-.43-1.067-1.24-1.877-2.43-2.432-1.2-.597-2.52-.896-3.97-.896s-2.58.32-3.39.96c-.82.597-1.22 1.451-1.22 2.56 0 .64.36 1.237 1.09 1.792.72.512 1.77.939 3.13 1.28l3.78.896c2.09.512 3.8 1.323 5.12 2.432 1.32 1.067 2.3 2.283 2.94 3.648.64 1.323.96 2.667.96 4.032 0 1.92-.55 3.605-1.66 5.056-1.07 1.451-2.54 2.581-4.42 3.392-1.87.768-4.01 1.152-6.4 1.152zm18.23-.768v-44.8h7.17v44.8zm21.7 0v-16.384h7.17v16.384zm0-16.384c0-2.56-.3-4.523-.9-5.888-.6-1.408-1.43-2.389-2.49-2.944-1.03-.555-2.22-.832-3.59-.832-2.43-.043-4.31.747-5.63 2.368-1.28 1.621-1.92 3.947-1.92 6.976h-2.75c0-3.371.49-6.251 1.47-8.64 1.02-2.432 2.45-4.267 4.29-5.504 1.83-1.28 4.01-1.92 6.53-1.92 2.51 0 4.69.512 6.52 1.536 1.84 1.024 3.23 2.624 4.16 4.8.99 2.133 1.48 4.928 1.48 8.384v1.664zm33.95 16.384-.32-6.016v-10.432c0-2.176-.24-3.989-.71-5.44-.43-1.493-1.15-2.624-2.17-3.392-.99-.811-2.31-1.216-3.97-1.216-1.54 0-2.88.32-4.03.96-1.16.64-2.14 1.643-2.95 3.008l-6.27-2.304c.68-1.408 1.58-2.709 2.69-3.904 1.15-1.237 2.58-2.219 4.29-2.944 1.74-.725 3.84-1.088 6.27-1.088 3.11 0 5.71.619 7.81 1.856 2.09 1.195 3.62 2.923 4.6 5.184 1.03 2.261 1.54 4.992 1.54 8.192l-.19 17.536zm-9.22.768c-3.84 0-6.83-.853-8.96-2.56-2.09-1.707-3.14-4.117-3.14-7.232 0-3.328 1.11-5.867 3.33-7.616 2.26-1.749 5.4-2.624 9.41-2.624h8.58v5.504h-6.28c-2.86 0-4.86.405-6.01 1.216-1.15.768-1.73 1.877-1.73 3.328 0 1.237.49 2.219 1.47 2.944 1.03.683 2.43 1.024 4.23 1.024 1.62 0 3.02-.363 4.22-1.088 1.19-.725 2.11-1.685 2.75-2.88.68-1.195 1.03-2.539 1.03-4.032h2.11c0 4.352-.88 7.787-2.63 10.304-1.75 2.475-4.54 3.712-8.38 3.712zm23.71-.768v-32h7.1v32zm3.58-38.08c-1.15 0-2.15-.405-3.01-1.216-.81-.853-1.21-1.856-1.21-3.008s.4-2.133 1.21-2.944c.86-.811 1.86-1.216 3.01-1.216s2.13.405 2.94 1.216c.86.811 1.28 1.792 1.28 2.944s-.42 2.155-1.28 3.008c-.81.811-1.79 1.216-2.94 1.216zm16.7 21.056c0-3.456.67-6.293 1.99-8.512s3.03-3.861 5.12-4.928c2.13-1.109 4.35-1.664 6.65-1.664v6.848c-1.96 0-3.81.277-5.56.832-1.71.512-3.1 1.365-4.16 2.56-1.07 1.195-1.6 2.773-1.6 4.736zm-4.73 17.024v-32h7.17v32zm26.7.896c-1.23 0-2.3-.427-3.2-1.28-.85-.896-1.28-1.963-1.28-3.2s.43-2.304 1.28-3.2c.9-.896 1.97-1.344 3.2-1.344 1.24 0 2.31.448 3.2 1.344.9.896 1.35 1.963 1.35 3.2s-.45 2.304-1.35 3.2c-.89.853-1.96 1.28-3.2 1.28zm26.4-.128c-3.29 0-6.19-.704-8.7-2.112-2.52-1.451-4.51-3.435-5.96-5.952-1.4-2.517-2.11-5.419-2.11-8.704s.71-6.187 2.11-8.704c1.45-2.517 3.42-4.48 5.89-5.888 2.52-1.451 5.4-2.176 8.64-2.176 3.16 0 6.02.768 8.58 2.304 2.56 1.493 4.46 3.648 5.69 6.464l-6.65 2.56c-.69-1.408-1.73-2.539-3.14-3.392s-3.01-1.28-4.8-1.28c-1.75 0-3.31.448-4.67 1.344-1.37.853-2.43 2.048-3.2 3.584-.77 1.493-1.15 3.221-1.15 5.184s.38 3.712 1.15 5.248c.81 1.493 1.9 2.688 3.26 3.584 1.41.853 2.99 1.28 4.74 1.28 1.79 0 3.39-.448 4.8-1.344 1.41-.939 2.45-2.197 3.14-3.776l6.65 2.56c-1.24 2.901-3.13 5.163-5.69 6.784-2.52 1.621-5.38 2.432-8.58 2.432zm34.56 0c-3.2 0-6.06-.704-8.58-2.112-2.48-1.451-4.42-3.435-5.82-5.952-1.41-2.517-2.12-5.419-2.12-8.704s.69-6.187 2.05-8.704c1.41-2.517 3.35-4.48 5.83-5.888 2.47-1.451 5.31-2.176 8.51-2.176s6.03.725 8.51 2.176c2.47 1.408 4.39 3.371 5.76 5.888 1.41 2.517 2.11 5.419 2.11 8.704s-.68 6.187-2.05 8.704c-1.36 2.517-3.28 4.501-5.76 5.952-2.47 1.408-5.29 2.112-8.44 2.112zm0-6.592c1.74 0 3.3-.427 4.67-1.28 1.36-.896 2.43-2.091 3.2-3.584.77-1.536 1.15-3.307 1.15-5.312s-.41-3.755-1.22-5.248c-.76-1.536-1.83-2.731-3.2-3.584-1.36-.896-2.94-1.344-4.73-1.344s-3.37.427-4.74 1.28c-1.36.853-2.43 2.048-3.2 3.584s-1.15 3.307-1.15 5.312.38 3.776 1.15 5.312c.81 1.493 1.9 2.688 3.27 3.584 1.4.853 3 1.28 4.8 1.28zm22.46 5.824v-32h6.72l.32 4.288c.98-1.664 2.24-2.923 3.78-3.776s3.28-1.28 5.25-1.28c2.56 0 4.73.576 6.53 1.728 1.79 1.152 3.09 2.901 3.9 5.248.94-2.261 2.26-3.989 3.97-5.184 1.7-1.195 3.71-1.792 6.01-1.792 3.72 0 6.57 1.195 8.58 3.584 2 2.347 2.99 5.973 2.94 10.88v18.304h-7.1v-16.384c0-2.56-.28-4.523-.83-5.888-.56-1.408-1.3-2.389-2.24-2.944s-2.03-.832-3.27-.832c-2.22-.043-3.94.747-5.18 2.368-1.2 1.621-1.79 3.947-1.79 6.976v16.704h-7.17v-16.384c0-2.56-.28-4.523-.83-5.888-.51-1.408-1.24-2.389-2.18-2.944s-2.03-.832-3.26-.832c-2.22-.043-3.95.747-5.19 2.368-1.19 1.621-1.79 3.947-1.79 6.976v16.704zm-721.482 77.768c-3.499 0-6.613-.981-9.344-2.944-2.731-2.005-4.885-4.736-6.464-8.192-1.536-3.499-2.304-7.509-2.304-12.032s.768-8.512 2.304-11.968c1.579-3.499 3.712-6.229 6.4-8.192 2.731-2.005 5.867-3.008 9.408-3.008s6.677 1.003 9.408 3.008c2.731 1.963 4.864 4.693 6.4 8.192 1.579 3.456 2.368 7.445 2.368 11.968s-.789 8.533-2.368 12.032c-1.536 3.456-3.669 6.187-6.4 8.192-2.688 1.963-5.824 2.944-9.408 2.944zm.064-6.72c2.091 0 3.947-.704 5.568-2.112 1.664-1.408 2.944-3.349 3.84-5.824.939-2.475 1.408-5.312 1.408-8.512s-.469-6.037-1.408-8.512c-.896-2.517-2.176-4.48-3.84-5.888-1.621-1.408-3.499-2.112-5.632-2.112s-4.011.704-5.632 2.112-2.901 3.349-3.84 5.824c-.896 2.475-1.344 5.333-1.344 8.576 0 3.2.448 6.037 1.344 8.512.939 2.475 2.219 4.416 3.84 5.824 1.664 1.408 3.563 2.112 5.696 2.112zm40.162 6.72c-3.456 0-6.421-.512-8.896-1.536-2.475-1.067-4.373-2.517-5.696-4.352-1.323-1.877-1.984-4.053-1.984-6.528 0-2.645.661-4.949 1.984-6.912 1.323-2.005 3.221-3.563 5.696-4.672 2.475-1.152 5.44-1.707 8.896-1.664 3.456-.043 6.421.512 8.896 1.664 2.475 1.109 4.373 2.667 5.696 4.672 1.365 1.963 2.048 4.267 2.048 6.912 0 2.475-.683 4.651-2.048 6.528-1.323 1.835-3.221 3.285-5.696 4.352-2.475 1.024-5.44 1.536-8.896 1.536zm0-6.272c2.645 0 4.821-.661 6.528-1.984s2.56-3.008 2.56-5.056c0-2.176-.853-3.947-2.56-5.312s-3.883-2.048-6.528-2.048c-1.749 0-3.307.299-4.672.896-1.323.597-2.389 1.472-3.2 2.624-.768 1.109-1.152 2.389-1.152 3.84 0 1.365.384 2.581 1.152 3.648.811 1.067 1.877 1.899 3.2 2.496 1.365.597 2.923.896 4.672.896zm0-16.064c-3.072 0-5.739-.491-8-1.472-2.261-1.024-4.011-2.411-5.248-4.16-1.195-1.792-1.792-3.861-1.792-6.208 0-2.389.597-4.501 1.792-6.336 1.237-1.835 2.987-3.264 5.248-4.288s4.928-1.536 8-1.536 5.739.512 8 1.536 4.011 2.453 5.248 4.288 1.856 3.947 1.856 6.336c0 2.347-.619 4.416-1.856 6.208-1.237 1.749-2.987 3.136-5.248 4.16-2.261.981-4.928 1.472-8 1.472zm0-4.544c2.261 0 4.117-.597 5.568-1.792 1.493-1.237 2.24-2.795 2.24-4.672 0-2.048-.747-3.712-2.24-4.992-1.451-1.28-3.307-1.92-5.568-1.92s-4.117.64-5.568 1.92-2.176 2.944-2.176 4.992c0 1.877.725 3.435 2.176 4.672 1.451 1.195 3.307 1.792 5.568 1.792zm32.726 26.112v-40.832l.7-3.968h6.46v44.8zm-9.732-31.68v-6.72c.982.043 2.092-.235 3.332-.832 1.28-.64 2.53-1.472 3.77-2.496s2.35-2.069 3.33-3.136l4.61 4.8c-1.5 1.579-3.05 3.029-4.67 4.352-1.63 1.323-3.31 2.347-5.06 3.072-1.71.725-3.48 1.045-5.312.96zm42.552 32.448c-3.02 0-5.61-.555-7.74-1.664-2.09-1.152-3.78-2.688-5.06-4.608-1.28-1.963-2.21-4.224-2.81-6.784-.6-2.603-.9-5.376-.9-8.32 0-3.584.37-6.891 1.09-9.92.77-3.029 1.9-5.675 3.39-7.936 1.5-2.261 3.35-4.011 5.57-5.248 2.26-1.237 4.89-1.856 7.87-1.856 2.31 0 4.57.363 6.79 1.088 2.26.683 4.26 1.643 6.01 2.88l-3.84 5.376c-1.32-.939-2.77-1.643-4.35-2.112-1.54-.469-2.96-.704-4.29-.704-3.71 0-6.59 1.6-8.64 4.8-2 3.2-2.92 8.171-2.75 14.912l-1.54-1.152c.99-2.432 2.54-4.373 4.68-5.824 2.13-1.493 4.67-2.24 7.61-2.24 2.86 0 5.4.661 7.62 1.984 2.22 1.28 3.95 3.051 5.18 5.312 1.24 2.219 1.86 4.757 1.86 7.616 0 2.773-.66 5.248-1.99 7.424-1.28 2.176-3.11 3.883-5.5 5.12-2.35 1.237-5.1 1.856-8.26 1.856zm.07-6.336c1.58 0 2.99-.363 4.22-1.088 1.28-.725 2.29-1.707 3.01-2.944.73-1.28 1.09-2.731 1.09-4.352s-.36-3.072-1.09-4.352c-.72-1.28-1.73-2.261-3.01-2.944-1.23-.725-2.64-1.088-4.22-1.088-1.62 0-3.07.363-4.35 1.088-1.24.683-2.22 1.664-2.95 2.944-.72 1.28-1.09 2.731-1.09 4.352s.37 3.072 1.09 4.352c.73 1.237 1.71 2.219 2.95 2.944 1.28.725 2.73 1.088 4.35 1.088zm30.67 5.568v-40.832l.7-3.968h6.47v44.8zm-9.73-31.68v-6.72c.98.043 2.09-.235 3.33-.832 1.28-.64 2.54-1.472 3.77-2.496 1.24-1.024 2.35-2.069 3.33-3.136l4.61 4.8c-1.49 1.579-3.05 3.029-4.67 4.352s-3.31 2.347-5.06 3.072c-1.7.725-3.47 1.045-5.31.96zm42.56 32.448c-3.03 0-5.61-.555-7.75-1.664-2.09-1.152-3.77-2.688-5.05-4.608-1.28-1.963-2.22-4.224-2.82-6.784-.6-2.603-.89-5.376-.89-8.32 0-3.584.36-6.891 1.08-9.92.77-3.029 1.9-5.675 3.4-7.936 1.49-2.261 3.34-4.011 5.56-5.248 2.26-1.237 4.89-1.856 7.88-1.856 2.3 0 4.56.363 6.78 1.088 2.26.683 4.27 1.643 6.02 2.88l-3.84 5.376c-1.33-.939-2.78-1.643-4.36-2.112-1.53-.469-2.96-.704-4.28-.704-3.72 0-6.6 1.6-8.64 4.8-2.01 3.2-2.93 8.171-2.76 14.912l-1.53-1.152c.98-2.432 2.54-4.373 4.67-5.824 2.13-1.493 4.67-2.24 7.62-2.24 2.85 0 5.39.661 7.61 1.984 2.22 1.28 3.95 3.051 5.19 5.312 1.23 2.219 1.85 4.757 1.85 7.616 0 2.773-.66 5.248-1.98 7.424-1.28 2.176-3.12 3.883-5.51 5.12-2.34 1.237-5.1 1.856-8.25 1.856zm.06-6.336c1.58 0 2.99-.363 4.23-1.088 1.28-.725 2.28-1.707 3-2.944.73-1.28 1.09-2.731 1.09-4.352s-.36-3.072-1.09-4.352c-.72-1.28-1.72-2.261-3-2.944-1.24-.725-2.65-1.088-4.23-1.088-1.62 0-3.07.363-4.35 1.088-1.24.683-2.22 1.664-2.94 2.944-.73 1.28-1.09 2.731-1.09 4.352s.36 3.072 1.09 4.352c.72 1.237 1.7 2.219 2.94 2.944 1.28.725 2.73 1.088 4.35 1.088zm23.31 5.568 19.84-39.104h7.62l-19.27 39.104zm-3.39-38.016v-6.784h30.85v5.696l-6.98 1.088zm36.21 38.016v-5.696c0-1.323.34-2.688 1.03-4.096.68-1.451 1.64-2.901 2.88-4.352 1.28-1.451 2.77-2.816 4.48-4.096l7.81-5.632c.98-.683 1.87-1.472 2.68-2.368.86-.896 1.54-1.835 2.05-2.816.51-1.024.77-2.027.77-3.008 0-1.237-.32-2.368-.96-3.392-.6-1.024-1.47-1.835-2.62-2.432-1.11-.597-2.48-.896-4.1-.896-1.45 0-2.75.299-3.9.896-1.11.555-2.03 1.301-2.76 2.24-.72.939-1.23 1.963-1.53 3.072l-7.62-1.408c.43-2.048 1.32-3.947 2.69-5.696 1.41-1.792 3.2-3.221 5.38-4.288 2.21-1.067 4.73-1.6 7.55-1.6 3.15 0 5.89.576 8.19 1.728 2.35 1.152 4.14 2.752 5.38 4.8 1.28 2.005 1.92 4.309 1.92 6.912 0 2.645-.73 5.035-2.18 7.168-1.41 2.091-3.39 4.096-5.95 6.016l-7.17 5.312c-1.41 1.024-2.56 2.133-3.46 3.328-.89 1.152-1.51 2.389-1.85 3.712h21.18v6.592zm52.69.768c-3.45 0-6.42-.512-8.89-1.536-2.48-1.067-4.38-2.517-5.7-4.352-1.32-1.877-1.98-4.053-1.98-6.528 0-2.645.66-4.949 1.98-6.912 1.32-2.005 3.22-3.563 5.7-4.672 2.47-1.152 5.44-1.707 8.89-1.664 3.46-.043 6.43.512 8.9 1.664 2.47 1.109 4.37 2.667 5.7 4.672 1.36 1.963 2.04 4.267 2.04 6.912 0 2.475-.68 4.651-2.04 6.528-1.33 1.835-3.23 3.285-5.7 4.352-2.47 1.024-5.44 1.536-8.9 1.536zm0-6.272c2.65 0 4.83-.661 6.53-1.984 1.71-1.323 2.56-3.008 2.56-5.056 0-2.176-.85-3.947-2.56-5.312-1.7-1.365-3.88-2.048-6.53-2.048-1.75 0-3.3.299-4.67.896-1.32.597-2.39 1.472-3.2 2.624-.77 1.109-1.15 2.389-1.15 3.84 0 1.365.38 2.581 1.15 3.648.81 1.067 1.88 1.899 3.2 2.496 1.37.597 2.92.896 4.67.896zm0-16.064c-3.07 0-5.73-.491-8-1.472-2.26-1.024-4.01-2.411-5.24-4.16-1.2-1.792-1.8-3.861-1.8-6.208 0-2.389.6-4.501 1.8-6.336 1.23-1.835 2.98-3.264 5.24-4.288 2.27-1.024 4.93-1.536 8-1.536 3.08 0 5.74.512 8 1.536 2.27 1.024 4.01 2.453 5.25 4.288s1.86 3.947 1.86 6.336c0 2.347-.62 4.416-1.86 6.208-1.24 1.749-2.98 3.136-5.25 4.16-2.26.981-4.92 1.472-8 1.472zm0-4.544c2.27 0 4.12-.597 5.57-1.792 1.5-1.237 2.24-2.795 2.24-4.672 0-2.048-.74-3.712-2.24-4.992-1.45-1.28-3.3-1.92-5.57-1.92-2.26 0-4.11.64-5.56 1.92s-2.18 2.944-2.18 4.992c0 1.877.73 3.435 2.18 4.672 1.45 1.195 3.3 1.792 5.56 1.792zm23.13 26.112v-5.696c0-1.323.34-2.688 1.02-4.096.68-1.451 1.64-2.901 2.88-4.352 1.28-1.451 2.77-2.816 4.48-4.096l7.81-5.632c.98-.683 1.88-1.472 2.69-2.368.85-.896 1.53-1.835 2.04-2.816.52-1.024.77-2.027.77-3.008 0-1.237-.32-2.368-.96-3.392-.6-1.024-1.47-1.835-2.62-2.432-1.11-.597-2.48-.896-4.1-.896-1.45 0-2.75.299-3.9.896-1.11.555-2.03 1.301-2.75 2.24-.73.939-1.24 1.963-1.54 3.072l-7.62-1.408c.43-2.048 1.33-3.947 2.69-5.696 1.41-1.792 3.2-3.221 5.38-4.288 2.22-1.067 4.73-1.6 7.55-1.6 3.16 0 5.89.576 8.19 1.728 2.35 1.152 4.14 2.752 5.38 4.8 1.28 2.005 1.92 4.309 1.92 6.912 0 2.645-.73 5.035-2.18 7.168-1.41 2.091-3.39 4.096-5.95 6.016l-7.17 5.312c-1.41 1.024-2.56 2.133-3.45 3.328-.9 1.152-1.52 2.389-1.86 3.712h21.18v6.592zm53.71.768c-3.5 0-6.61-.981-9.34-2.944-2.73-2.005-4.89-4.736-6.47-8.192-1.53-3.499-2.3-7.509-2.3-12.032s.77-8.512 2.3-11.968c1.58-3.499 3.71-6.229 6.4-8.192 2.73-2.005 5.87-3.008 9.41-3.008s6.68 1.003 9.41 3.008c2.73 1.963 4.86 4.693 6.4 8.192 1.58 3.456 2.37 7.445 2.37 11.968s-.79 8.533-2.37 12.032c-1.54 3.456-3.67 6.187-6.4 8.192-2.69 1.963-5.83 2.944-9.41 2.944zm.06-6.72c2.1 0 3.95-.704 5.57-2.112 1.67-1.408 2.95-3.349 3.84-5.824.94-2.475 1.41-5.312 1.41-8.512s-.47-6.037-1.41-8.512c-.89-2.517-2.17-4.48-3.84-5.888-1.62-1.408-3.5-2.112-5.63-2.112s-4.01.704-5.63 2.112-2.9 3.349-3.84 5.824c-.9 2.475-1.35 5.333-1.35 8.576 0 3.2.45 6.037 1.35 8.512.94 2.475 2.22 4.416 3.84 5.824 1.66 1.408 3.56 2.112 5.69 2.112zm22.69 13.312 3.84-14.528h7.56l-5.76 14.528zm49.63-6.592c-3.5 0-6.62-.981-9.35-2.944-2.73-2.005-4.88-4.736-6.46-8.192-1.54-3.499-2.31-7.509-2.31-12.032s.77-8.512 2.31-11.968c1.58-3.499 3.71-6.229 6.4-8.192 2.73-2.005 5.86-3.008 9.41-3.008 3.54 0 6.67 1.003 9.4 3.008 2.73 1.963 4.87 4.693 6.4 8.192 1.58 3.456 2.37 7.445 2.37 11.968s-.79 8.533-2.37 12.032c-1.53 3.456-3.67 6.187-6.4 8.192-2.68 1.963-5.82 2.944-9.4 2.944zm.06-6.72c2.09 0 3.95-.704 5.57-2.112 1.66-1.408 2.94-3.349 3.84-5.824.94-2.475 1.41-5.312 1.41-8.512s-.47-6.037-1.41-8.512c-.9-2.517-2.18-4.48-3.84-5.888-1.62-1.408-3.5-2.112-5.63-2.112-2.14 0-4.02.704-5.64 2.112s-2.9 3.349-3.84 5.824c-.89 2.475-1.34 5.333-1.34 8.576 0 3.2.45 6.037 1.34 8.512.94 2.475 2.22 4.416 3.84 5.824 1.67 1.408 3.57 2.112 5.7 2.112zm26.27 5.952 19.84-39.104h7.62l-19.26 39.104zm-3.39-38.016v-6.784h30.85v5.696l-6.98 1.088zm53.37 38.784c-3.5 0-6.62-.981-9.35-2.944-2.73-2.005-4.88-4.736-6.46-8.192-1.54-3.499-2.3-7.509-2.3-12.032s.76-8.512 2.3-11.968c1.58-3.499 3.71-6.229 6.4-8.192 2.73-2.005 5.87-3.008 9.41-3.008s6.68 1.003 9.41 3.008c2.73 1.963 4.86 4.693 6.4 8.192 1.57 3.456 2.36 7.445 2.36 11.968s-.79 8.533-2.36 12.032c-1.54 3.456-3.67 6.187-6.4 8.192-2.69 1.963-5.83 2.944-9.41 2.944zm.06-6.72c2.09 0 3.95-.704 5.57-2.112 1.66-1.408 2.94-3.349 3.84-5.824.94-2.475 1.41-5.312 1.41-8.512s-.47-6.037-1.41-8.512c-.9-2.517-2.18-4.48-3.84-5.888-1.62-1.408-3.5-2.112-5.63-2.112-2.14 0-4.01.704-5.63 2.112-1.63 1.408-2.91 3.349-3.84 5.824-.9 2.475-1.35 5.333-1.35 8.576 0 3.2.45 6.037 1.35 8.512.93 2.475 2.21 4.416 3.84 5.824 1.66 1.408 3.56 2.112 5.69 2.112zm38.24 6.72c-2.43 0-4.65-.363-6.65-1.088-2.01-.725-3.69-1.749-5.06-3.072-1.36-1.323-2.34-2.816-2.94-4.48l6.65-2.496c.35.597.81 1.259 1.41 1.984s1.39 1.365 2.37 1.92c.98.512 2.24.768 3.78.768 2.43 0 4.35-.683 5.76-2.048 1.45-1.408 2.17-3.179 2.17-5.312 0-1.536-.4-2.859-1.21-3.968-.77-1.109-1.99-1.963-3.65-2.56-1.62-.597-3.67-.896-6.15-.896h-2.04v-5.248h1.85c2.6 0 5.02.299 7.23.896 2.27.597 4.25 1.493 5.96 2.688 1.75 1.152 3.09 2.56 4.03 4.224.98 1.664 1.47 3.541 1.47 5.632 0 2.688-.7 5.013-2.11 6.976-1.37 1.963-3.18 3.477-5.44 4.544-2.26 1.024-4.74 1.536-7.43 1.536zm-5.56-22.4v-4.992h2.04c3.29 0 5.79-.555 7.49-1.664 1.71-1.109 2.56-2.667 2.56-4.672 0-1.152-.3-2.176-.89-3.072-.56-.939-1.37-1.685-2.44-2.24-1.06-.555-2.32-.832-3.77-.832-.94 0-1.86.149-2.75.448-.9.299-1.73.768-2.5 1.408s-1.41 1.472-1.92 2.496l-6.46-2.368c.64-1.792 1.66-3.307 3.07-4.544 1.41-1.28 3.05-2.24 4.93-2.88 1.87-.683 3.84-1.024 5.88-1.024 2.73 0 5.17.512 7.3 1.536 2.18 1.024 3.88 2.453 5.12 4.288 1.28 1.792 1.92 3.861 1.92 6.208 0 1.963-.49 3.691-1.47 5.184-.94 1.493-2.24 2.752-3.91 3.776-1.66.981-3.56 1.728-5.69 2.24-2.09.469-4.33.704-6.72.704zm36.21 21.632v-40.832l.7-3.968h6.46v44.8zm-9.73-31.68v-6.72c.98.043 2.09-.235 3.33-.832 1.28-.64 2.53-1.472 3.77-2.496s2.35-2.069 3.33-3.136l4.61 4.8c-1.5 1.579-3.05 3.029-4.67 4.352-1.63 1.323-3.31 2.347-5.06 3.072-1.71.725-3.48 1.045-5.31.96zm36.54 31.68v-40.832l.7-3.968h6.47v44.8zm-9.73-31.68v-6.72c.98.043 2.09-.235 3.33-.832 1.28-.64 2.54-1.472 3.77-2.496 1.24-1.024 2.35-2.069 3.33-3.136l4.61 4.8c-1.49 1.579-3.05 3.029-4.67 4.352s-3.31 2.347-5.06 3.072c-1.7.725-3.47 1.045-5.31.96zm46.33 31.68v-9.6h-20.73v-5.888l20.03-29.312h7.81v28.736h8.32v6.464h-8.32v9.6zm-12.86-16.064h12.86v-18.88zm53.05 16.064v-9.6h-20.74v-5.888l20.04-29.312h7.8v28.736h8.32v6.464h-8.32v9.6zm-12.86-16.064h12.86v-18.88zm49.78 16.832c-3.45 0-6.42-.512-8.89-1.536-2.48-1.067-4.38-2.517-5.7-4.352-1.32-1.877-1.98-4.053-1.98-6.528 0-2.645.66-4.949 1.98-6.912 1.32-2.005 3.22-3.563 5.7-4.672 2.47-1.152 5.44-1.707 8.89-1.664 3.46-.043 6.43.512 8.9 1.664 2.47 1.109 4.37 2.667 5.7 4.672 1.36 1.963 2.04 4.267 2.04 6.912 0 2.475-.68 4.651-2.04 6.528-1.33 1.835-3.23 3.285-5.7 4.352-2.47 1.024-5.44 1.536-8.9 1.536zm0-6.272c2.65 0 4.83-.661 6.53-1.984 1.71-1.323 2.56-3.008 2.56-5.056 0-2.176-.85-3.947-2.56-5.312-1.7-1.365-3.88-2.048-6.53-2.048-1.75 0-3.3.299-4.67.896-1.32.597-2.39 1.472-3.2 2.624-.77 1.109-1.15 2.389-1.15 3.84 0 1.365.38 2.581 1.15 3.648.81 1.067 1.88 1.899 3.2 2.496 1.37.597 2.92.896 4.67.896zm0-16.064c-3.07 0-5.73-.491-8-1.472-2.26-1.024-4.01-2.411-5.24-4.16-1.2-1.792-1.8-3.861-1.8-6.208 0-2.389.6-4.501 1.8-6.336 1.23-1.835 2.98-3.264 5.24-4.288 2.27-1.024 4.93-1.536 8-1.536 3.08 0 5.74.512 8 1.536 2.27 1.024 4.01 2.453 5.25 4.288s1.86 3.947 1.86 6.336c0 2.347-.62 4.416-1.86 6.208-1.24 1.749-2.98 3.136-5.25 4.16-2.26.981-4.92 1.472-8 1.472zm0-4.544c2.27 0 4.12-.597 5.57-1.792 1.5-1.237 2.24-2.795 2.24-4.672 0-2.048-.74-3.712-2.24-4.992-1.45-1.28-3.3-1.92-5.57-1.92-2.26 0-4.11.64-5.56 1.92s-2.18 2.944-2.18 4.992c0 1.877.73 3.435 2.18 4.672 1.45 1.195 3.3 1.792 5.56 1.792zm37.33 26.88c-2.43 0-4.65-.363-6.65-1.088-2.01-.725-3.69-1.749-5.06-3.072-1.36-1.323-2.34-2.816-2.94-4.48l6.65-2.496c.35.597.81 1.259 1.41 1.984s1.39 1.365 2.37 1.92c.98.512 2.24.768 3.78.768 2.43 0 4.35-.683 5.76-2.048 1.45-1.408 2.17-3.179 2.17-5.312 0-1.536-.4-2.859-1.21-3.968-.77-1.109-1.99-1.963-3.65-2.56-1.62-.597-3.67-.896-6.15-.896h-2.04v-5.248h1.85c2.6 0 5.02.299 7.23.896 2.27.597 4.25 1.493 5.96 2.688 1.75 1.152 3.09 2.56 4.03 4.224.98 1.664 1.47 3.541 1.47 5.632 0 2.688-.7 5.013-2.11 6.976-1.37 1.963-3.18 3.477-5.44 4.544-2.26 1.024-4.74 1.536-7.43 1.536zm-5.56-22.4v-4.992h2.04c3.29 0 5.79-.555 7.49-1.664 1.71-1.109 2.56-2.667 2.56-4.672 0-1.152-.3-2.176-.89-3.072-.56-.939-1.37-1.685-2.44-2.24-1.06-.555-2.32-.832-3.77-.832-.94 0-1.86.149-2.75.448-.9.299-1.73.768-2.5 1.408s-1.41 1.472-1.92 2.496l-6.46-2.368c.64-1.792 1.66-3.307 3.07-4.544 1.41-1.28 3.05-2.24 4.93-2.88 1.87-.683 3.84-1.024 5.88-1.024 2.73 0 5.17.512 7.3 1.536 2.18 1.024 3.88 2.453 5.12 4.288 1.28 1.792 1.92 3.861 1.92 6.208 0 1.963-.49 3.691-1.47 5.184-.94 1.493-2.24 2.752-3.91 3.776-1.66.981-3.56 1.728-5.69 2.24-2.09.469-4.33.704-6.72.704zm26.61 21.632v-5.696c0-1.323.34-2.688 1.02-4.096.68-1.451 1.64-2.901 2.88-4.352 1.28-1.451 2.77-2.816 4.48-4.096l7.81-5.632c.98-.683 1.88-1.472 2.69-2.368.85-.896 1.53-1.835 2.04-2.816.52-1.024.77-2.027.77-3.008 0-1.237-.32-2.368-.96-3.392-.6-1.024-1.47-1.835-2.62-2.432-1.11-.597-2.48-.896-4.1-.896-1.45 0-2.75.299-3.9.896-1.11.555-2.03 1.301-2.75 2.24-.73.939-1.24 1.963-1.54 3.072l-7.62-1.408c.43-2.048 1.33-3.947 2.69-5.696 1.41-1.792 3.2-3.221 5.38-4.288 2.22-1.067 4.73-1.6 7.55-1.6 3.16 0 5.89.576 8.19 1.728 2.35 1.152 4.14 2.752 5.38 4.8 1.28 2.005 1.92 4.309 1.92 6.912 0 2.645-.73 5.035-2.18 7.168-1.41 2.091-3.39 4.096-5.95 6.016l-7.17 5.312c-1.41 1.024-2.56 2.133-3.45 3.328-.9 1.152-1.52 2.389-1.86 3.712h21.18v6.592z"/><path d="m1153.79 106.598-6.24-1.092v-5.46h43.83l.86 14.586h-7.02l-3.12-8.502-14.98-.936v21.606l10.22-.234 1.56-7.02h5.46v20.826h-5.38l-1.64-7.254-10.22-.312v19.188l11.94.858v5.148h-31.12v-5.148l5.85-.858zm48.75 0-5.85-1.092v-5.46h26.6v5.46l-7.41 1.092v45.318l14.66-.78 5.07-15.444 7.33.936-2.26 21.372h-44.15v-5.148l6.01-.78zm69.08 52.26c-8.74 0-15.21-2.626-19.42-7.878-4.22-5.304-6.32-12.584-6.32-21.84 0-5.98 1.09-11.206 3.27-15.678 2.24-4.524 5.36-8.008 9.36-10.452 4.01-2.444 8.69-3.666 14.04-3.666 8.95 0 15.53 2.496 19.74 7.488 4.26 4.94 6.39 12.012 6.39 21.216 0 6.084-1.11 11.466-3.35 16.146-2.24 4.628-5.41 8.242-9.52 10.842-4.05 2.548-8.78 3.822-14.19 3.822zm.7-54.366c-3.74 0-6.66 2.054-8.74 6.162-2.02 4.108-3.04 10.244-3.04 18.408 0 8.32 1.02 14.508 3.04 18.564 2.03 4.004 4.92 6.006 8.66 6.006 3.69 0 6.55-2.184 8.58-6.552 2.08-4.42 3.12-10.738 3.12-18.954 0-8.32-.99-14.326-2.96-18.018-1.98-3.744-4.86-5.616-8.66-5.616zm58.69 54.132c-8.06 0-14.09-1.95-18.1-5.85-4-3.9-6-10.01-6-18.33v-27.846l-4.84-1.092v-5.46h25.2v5.46l-6.56 1.17v28.86c0 11.752 4.09 17.628 12.25 17.628 4.06 0 7.02-1.534 8.89-4.602 1.93-3.12 2.89-7.41 2.89-12.87v-29.094l-6.71-1.092v-5.46h20.28v5.46l-5.15 1.092v28.392c0 8.112-2 14.092-6 17.94-3.96 3.796-9.34 5.694-16.15 5.694zm30.59-5.772 6-.78v-45.552l-5.69-1.092v-5.382h12.01c.99 0 2.05-.026 3.2-.078 1.19-.052 2.1-.104 2.73-.156 2.81-.208 5.2-.312 7.17-.312 5.57 0 9.99.546 13.26 1.638 3.28 1.04 5.65 2.704 7.1 4.992 1.51 2.236 2.26 5.2 2.26 8.892 0 3.536-.93 6.838-2.8 9.906-1.88 3.068-4.63 5.174-8.27 6.318 2.39.884 4.39 2.548 6 4.992 1.67 2.392 3.38 5.46 5.15 9.204 1.04 2.184 1.87 3.822 2.5 4.914.62 1.04 1.27 1.638 1.95 1.794l2.26.702v5.148h-14.82c-.78 0-1.59-.832-2.42-2.496s-1.9-4.264-3.2-7.8c-1.61-4.316-3.01-7.644-4.21-9.984-1.14-2.392-2.42-3.848-3.82-4.368h-7.02v18.72l6.94.78v5.148h-26.28zm25.35-24.57c2.7 0 4.81-1.04 6.31-3.12 1.51-2.132 2.27-5.33 2.27-9.594 0-3.744-.76-6.474-2.27-8.19-1.45-1.768-3.92-2.652-7.41-2.652-1.87 0-3.51.13-4.91.39v22.932c.68.156 1.79.234 3.35.234zm38.56-21.684-6.39-1.092v-5.46h26.28v5.46l-6.55 1.092v45.474l6.55.858v5.07h-26.21v-5.148l6.32-.858zm46.49 52.26c-2.86 0-5.51-.234-7.96-.702-2.39-.468-4.91-1.092-7.56-1.872-1.72-.52-2.97-.806-3.75-.858l.71-14.586h7.25l1.95 9.984c.57.676 1.61 1.274 3.12 1.794 1.56.52 3.41.78 5.54.78 3.17 0 5.54-.702 7.1-2.106 1.61-1.404 2.41-3.328 2.41-5.772 0-1.716-.52-3.198-1.56-4.446-.98-1.3-2.39-2.47-4.21-3.51-1.77-1.092-4.21-2.34-7.33-3.744-4.11-1.872-7.59-4.238-10.45-7.098-2.81-2.912-4.21-6.734-4.21-11.466 0-2.912.75-5.564 2.26-7.956s3.79-4.316 6.86-5.772 6.89-2.184 11.47-2.184c2.75 0 5.15.182 7.17.546 2.08.364 4.29.858 6.63 1.482 1.25.416 2.21.65 2.89.702l-.47 13.884h-7.1l-1.79-9.594c-.36-.468-1.2-.884-2.5-1.248-1.24-.416-2.65-.624-4.21-.624-2.86 0-5.02.676-6.47 2.028-1.41 1.352-2.11 3.094-2.11 5.226 0 1.872.6 3.51 1.8 4.914 1.19 1.404 2.62 2.6 4.29 3.588 1.71.936 4.31 2.262 7.8 3.978 2.75 1.352 5.14 2.73 7.17 4.134 2.08 1.352 3.85 3.12 5.31 5.304 1.45 2.184 2.18 4.732 2.18 7.644 0 2.86-.7 5.616-2.11 8.268-1.35 2.652-3.69 4.862-7.02 6.63-3.32 1.768-7.69 2.652-13.1 2.652zm32.79-52.338-5.62-1.014v-5.46h25.27v5.46l-6.39 1.014v18.642h21.37v-18.564l-5.85-1.092v-5.46h24.96v5.46l-5.77 1.014v45.552l5.77.78v5.148h-24.96v-5.148l5.85-.858v-20.202h-21.37v20.28l6.39.78v5.148h-25.42v-5.148l5.77-.78zm77.86 46.332 6-.78v-45.552l-5.69-1.092v-5.382h12.01c.99 0 2.05-.026 3.2-.078 1.19-.052 2.1-.104 2.73-.156 2.81-.208 5.2-.312 7.17-.312 5.57 0 9.99.546 13.26 1.638 3.28 1.04 5.65 2.704 7.1 4.992 1.51 2.236 2.26 5.2 2.26 8.892 0 3.536-.93 6.838-2.8 9.906-1.88 3.068-4.63 5.174-8.27 6.318 2.39.884 4.39 2.548 6 4.992 1.67 2.392 3.38 5.46 5.15 9.204 1.04 2.184 1.87 3.822 2.5 4.914.62 1.04 1.27 1.638 1.95 1.794l2.26.702v5.148h-14.82c-.78 0-1.59-.832-2.42-2.496s-1.9-4.264-3.2-7.8c-1.61-4.316-3.01-7.644-4.21-9.984-1.14-2.392-2.42-3.848-3.82-4.368h-7.02v18.72l6.94.78v5.148h-26.28zm25.35-24.57c2.7 0 4.81-1.04 6.31-3.12 1.51-2.132 2.27-5.33 2.27-9.594 0-3.744-.76-6.474-2.27-8.19-1.45-1.768-3.92-2.652-7.41-2.652-1.87 0-3.51.13-4.91.39v22.932c.68.156 1.79.234 3.35.234zm56.89 30.576c-8.73 0-15.21-2.626-19.42-7.878-4.21-5.304-6.32-12.584-6.32-21.84 0-5.98 1.09-11.206 3.28-15.678 2.23-4.524 5.35-8.008 9.36-10.452 4-2.444 8.68-3.666 14.04-3.666 8.94 0 15.52 2.496 19.73 7.488 4.27 4.94 6.4 12.012 6.4 21.216 0 6.084-1.12 11.466-3.36 16.146-2.23 4.628-5.4 8.242-9.51 10.842-4.06 2.548-8.79 3.822-14.2 3.822zm.7-54.366c-3.74 0-6.65 2.054-8.73 6.162-2.03 4.108-3.04 10.244-3.04 18.408 0 8.32 1.01 14.508 3.04 18.564 2.03 4.004 4.91 6.006 8.66 6.006 3.69 0 6.55-2.184 8.58-6.552 2.08-4.42 3.12-10.738 3.12-18.954 0-8.32-.99-14.326-2.97-18.018-1.97-3.744-4.86-5.616-8.66-5.616zm56.36 54.366c-8.74 0-15.21-2.626-19.43-7.878-4.21-5.304-6.31-12.584-6.31-21.84 0-5.98 1.09-11.206 3.27-15.678 2.24-4.524 5.36-8.008 9.36-10.452 4.01-2.444 8.69-3.666 14.04-3.666 8.95 0 15.52 2.496 19.74 7.488 4.26 4.94 6.39 12.012 6.39 21.216 0 6.084-1.12 11.466-3.35 16.146-2.24 4.628-5.41 8.242-9.52 10.842-4.05 2.548-8.79 3.822-14.19 3.822zm.7-54.366c-3.75 0-6.66 2.054-8.74 6.162-2.03 4.108-3.04 10.244-3.04 18.408 0 8.32 1.01 14.508 3.04 18.564 2.03 4.004 4.92 6.006 8.66 6.006 3.69 0 6.55-2.184 8.58-6.552 2.08-4.42 3.12-10.738 3.12-18.954 0-8.32-.99-14.326-2.96-18.018-1.98-3.744-4.87-5.616-8.66-5.616zm50.11 1.326-9.75.39-3.28 17.394h-7.33l1.25-23.556h51.4l1.01 23.556h-6.94l-3.43-17.394-9.44-.39v46.176l10.84.858v5.148h-34.24v-5.148l9.91-.858zm58.39 53.04c-2.86 0-5.51-.234-7.96-.702-2.39-.468-4.91-1.092-7.56-1.872-1.72-.52-2.97-.806-3.75-.858l.71-14.586h7.25l1.95 9.984c.57.676 1.61 1.274 3.12 1.794 1.56.52 3.41.78 5.54.78 3.17 0 5.54-.702 7.1-2.106 1.61-1.404 2.41-3.328 2.41-5.772 0-1.716-.52-3.198-1.56-4.446-.98-1.3-2.39-2.47-4.21-3.51-1.77-1.092-4.21-2.34-7.33-3.744-4.11-1.872-7.59-4.238-10.45-7.098-2.81-2.912-4.21-6.734-4.21-11.466 0-2.912.75-5.564 2.26-7.956s3.79-4.316 6.86-5.772 6.89-2.184 11.47-2.184c2.75 0 5.15.182 7.17.546 2.08.364 4.29.858 6.63 1.482 1.25.416 2.21.65 2.89.702l-.47 13.884h-7.1l-1.79-9.594c-.36-.468-1.2-.884-2.5-1.248-1.24-.416-2.65-.624-4.21-.624-2.86 0-5.02.676-6.47 2.028-1.41 1.352-2.11 3.094-2.11 5.226 0 1.872.6 3.51 1.8 4.914 1.19 1.404 2.62 2.6 4.29 3.588 1.71.936 4.31 2.262 7.8 3.978 2.75 1.352 5.14 2.73 7.17 4.134 2.08 1.352 3.85 3.12 5.31 5.304 1.45 2.184 2.18 4.732 2.18 7.644 0 2.86-.7 5.616-2.11 8.268-1.35 2.652-3.69 4.862-7.02 6.63-3.32 1.768-7.69 2.652-13.1 2.652zm51.3-52.338-5.62-1.014v-5.46h25.27v5.46l-6.39 1.014v18.642h21.37v-18.564l-5.85-1.092v-5.46h24.96v5.46l-5.77 1.014v45.552l5.77.78v5.148h-24.96v-5.148l5.85-.858v-20.202h-21.37v20.28l6.39.78v5.148h-25.42v-5.148l5.77-.78zm77.13-6.708h14.04l17.47 52.26 4.29.78v5.148h-24.57v-5.148l5.54-.78-2.65-9.36h-18.64l-2.66 9.438 6.09.702v5.148h-20.75l-.08-5.148 4.53-.858zm5.77 13.572-1.17-5.46-1.25 5.538-6.31 23.244h15.44zm38.46-6.786-6.4-1.092v-5.46h26.29v5.46l-6.55 1.092v45.474l6.55.858v5.07h-26.21v-5.148l6.32-.858zm25.66 46.254 6.01-.78v-45.552l-5.7-1.092v-5.382h12.01c.99 0 2.06-.026 3.2-.078 1.2-.052 2.11-.104 2.73-.156 2.81-.208 5.2-.312 7.18-.312 5.56 0 9.98.546 13.26 1.638 3.27 1.04 5.64 2.704 7.1 4.992 1.5 2.236 2.26 5.2 2.26 8.892 0 3.536-.94 6.838-2.81 9.906s-4.63 5.174-8.27 6.318c2.39.884 4.4 2.548 6.01 4.992 1.66 2.392 3.38 5.46 5.15 9.204 1.04 2.184 1.87 3.822 2.49 4.914.63 1.04 1.28 1.638 1.95 1.794l2.26.702v5.148h-14.82c-.78 0-1.58-.832-2.41-2.496-.84-1.664-1.9-4.264-3.2-7.8-1.61-4.316-3.02-7.644-4.21-9.984-1.15-2.392-2.42-3.848-3.83-4.368h-7.02v18.72l6.95.78v5.148h-26.29zm25.35-24.57c2.7 0 4.81-1.04 6.32-3.12 1.51-2.132 2.26-5.33 2.26-9.594 0-3.744-.75-6.474-2.26-8.19-1.46-1.768-3.93-2.652-7.41-2.652-1.87 0-3.51.13-4.92.39v22.932c.68.156 1.8.234 3.36.234z"/><path clip-rule="evenodd" d="m349.491 762.404c-10.385 10.946-35.292 13.456-48.003-.814-5.713-6.413-8.963-15.976-7.323-30.103-11.933 3.118-37.1 2.766-42.308-23.595-13.017 1.356-38.158-4.719-34.578-39.867-11.39-3.39-31.649-16.842-21.561-43.528-14.509-1.356-38.972-13.669-20.747-52.071-7.051-1.492-21.479-8.543-22.781-24.815-1.331-16.64 5.505-23.751 9.819-28.238.959-.998 1.793-1.865 2.385-2.68-7.729-1.762-23.025-10.495-22.374-31.324.581-18.594 10.914-23.908 15.885-26.464 1.989-1.024 3.119-1.605 2.421-2.419-6.237-1.763-18.387-10.414-17.086-30.917.543-7.322 5.94-22.537 23.188-24.815-12.204-12.069-26.767-40.518 12.611-57.766-8.271-13.832-15.377-43.203 22.375-50.037-3.662-6.916-8.462-23.595 1.627-34.986 10.436-11.782 16.693-12.143 24.765-12.608 1.683-.097 3.444-.199 5.338-.409 2.034.271 6.835 1.22 9.764 2.847-5.831-10.848-10.008-35.311 19.933-46.376 5.424-1.356 18.632-2.44 28.07 4.068-2.17-12.611.732-39.134 29.697-44.341 4.203-1.221 15.865-1.058 28.883 9.356-.271-12.746 7.81-38.24 42.307-38.24 5.289.407 17.981 4.069 26.443 15.459 2.034-12.34 14.075-35.311 45.969-28.476 4.068 0 14.808 4.149 25.222 20.747 3.254-8.814 16.191-25.303 41.901-20.747 7.187 1.356 23.025 9.438 28.883 30.917 7.051-11.797 28.313-29.615 56.953-6.509 3.932 3.797 11.309 14.482 9.356 26.849 10.17-7.187 35.229-15.784 54.105 7.323 4.068 5.695 8.543 13.424 5.695 27.662 12.205-4.881 39.379-8.054 50.444 18.307 1.492 2.983 3.824 11.716 1.221 22.781 14.238-6.102 47.352 8.136 34.985 40.68 15.052 1.221 42.715 18.144 21.561 51.665 22.781-4.475 48.003 30.103 18.713 54.511 18.713 4.475 35.799 34.986 8.136 57.36 8.407 3.932 23.92 16.76 18.713 36.612-1.492 5.56-7.648 17.737-20.34 21.968 8.136 6.102 21.316 23.513 8.949 44.342-3.661 5.153-13.262 14.807-22.374 12.204 7.187 6.102 18.876 23.106 8.136 42.308-3.39 5.017-12.692 14.726-22.781 13.424 4.204 12.747 4.556 39.46-27.663 44.342 4.068 7.322 6.184 25.303-17.899 38.646-4.746 1.763-15.215 4.231-19.12 0 .136 13.967-8.299 39.705-43.121 30.918 1.356 7.187.732 23.838-12.611 32.951-7.594 5.695-27.256 12.855-45.156-4.068-2.847 29.697-40.436 52.071-72.004 19.526-4.611 3.797-14.971 11.31-19.527 10.984-3.932-.281-2.668-4.924-1.398-9.59.201-.741.403-1.482.584-2.207.401-1.601.816-3.735 1.31-6.277 1.769-9.089 4.554-23.401 11.301-37.251 7.73-15.866 8.137-48.817-35.392-61.021-10.17 31.324-47.026 99.586-114.719 118.787-14.102 3.254-43.202.814-46.782-34.985zm166.383-111.058c14.78 3.254 61.753 9.682 131.398 9.357 10.577 0 16.272-6.509 18.306-17.493 1.492-3.661 1.465-12.855-10.577-20.34-6.644-2.577-20.991-8.381-25.222-10.984-4.231-2.604-6.373-5.967-6.915-7.323l-.814-4.474c12.475 1.356 34.578 3.661 37.019 3.254.286-.048.593-.09.914-.134 2.708-.37 6.409-.877 6.409-5.968 0-.416.013-.819.026-1.212.089-2.686.163-4.951-4.094-8.145-2.984-3.39-13.506-8.868-31.731-3.661-3.39 1.221-12.204 3.987-20.34 5.289-2.441 0-6.347-1.302-2.441-6.509 4.881-6.509 21.154-20.341 22.781-20.747 2.983-2.034 12.855-6.184 28.476-6.509-1.085-3.119-4.231-10.17-8.136-13.425h-6.916c-1.084-.135-3.742-.895-5.695-2.847-1.898-.678-7.566-1.058-15.052 2.847-4.203.407-11.716-.813-8.136-8.95 1.356-3.39 12.367-11.634 45.562-17.492 1.085-.271 2.523-1.546-.406-4.475-.902-.902-3.506-2.593-6.998-4.86-10.688-6.942-29.697-19.287-33.683-30.939-2.305-4.339-4.638-15.296 4.475-24.408.407-1.221.976-4.231 0-6.509s-21.832-22.374-32.138-32.138l-2.847-4.475c-.814-1.22-3.173-2.766-6.102.814s-11.527 6.102-15.459 6.916c-6.102.542-19.364 1.139-23.595-.814l-5.288 15.866c9.356-1.085 32.3-.814 49.223 8.949 4.204 3.119 9.375 10.914 1.264 17.967-.194.016-.383.032-.565.047-3.784.321-5.088.432-10.055-1.742-.561-.245-1.217-.553-1.968-.905-7.964-3.741-26.449-12.422-51.731-2.756l-20.747 8.543c5.696 13.967 7.486 45.725-30.917 61.021v2.034c8.136 8.407 21.317 31.649 8.95 57.359 13.425 8.815 38.809 34.904 32.951 68.751z" fill-rule="evenodd"/><path d="m542.594 472.232c-13.326 4.759-21.432 6.086-31.602 8.663 0 3.661 19.527 17.899 41.494 19.526 17.574 1.302 31.731-2.441 36.613-4.475 0-2.909-2.615-7.195-3.836-8.551-11.39-13.425-17.515-13.753-23.827-15.857-7.91-2.637-13.905-1.07-18.842.694z"/><path d="m963.201 257.8-9.36-1.56v-8.4h30.12l33.119 51.12 6.72 14.4v-55.56l-10.2-1.56v-8.4h30.72v8.4l-9.12 1.56v79.2h-17.64l-35.159-54.84-7.92-15.84v61.44l12.72 1.32v7.92h-33.36v-7.92l9.36-1.32zm114.439-10.32h21.6l26.88 80.4 6.6 1.2v7.92h-37.8v-7.92l8.52-1.2-4.08-14.4h-28.68l-4.08 14.52 9.36 1.08v7.92h-31.92l-.12-7.92 6.96-1.32zm8.88 20.88-1.8-8.4-1.92 8.52-9.72 35.76h23.76zm77.77-11.64-15 .6-5.04 26.76h-11.28l1.92-36.24h79.08l1.56 36.24h-10.68l-5.28-26.76-14.52-.6v71.04l16.68 1.32v7.92h-52.68v-7.92l15.24-1.32zm100.15 81.24c-12.4 0-21.68-3-27.84-9s-9.24-15.4-9.24-28.2v-42.84l-7.44-1.68v-8.4h38.76v8.4l-10.08 1.8v44.4c0 18.08 6.28 27.12 18.84 27.12 6.24 0 10.8-2.36 13.68-7.08 2.96-4.8 4.44-11.4 4.44-19.8v-44.76l-10.32-1.68v-8.4h31.2v8.4l-7.92 1.68v43.68c0 12.48-3.08 21.68-9.24 27.6-6.08 5.84-14.36 8.76-24.84 8.76zm47.05-8.88 9.24-1.2v-70.08l-8.76-1.68v-8.28h18.48c1.52 0 3.16-.04 4.92-.12 1.84-.08 3.24-.16 4.2-.24 4.32-.32 8-.48 11.04-.48 8.56 0 15.36.84 20.4 2.52 5.04 1.6 8.68 4.16 10.92 7.68 2.32 3.44 3.48 8 3.48 13.68 0 5.44-1.44 10.52-4.32 15.24s-7.12 7.96-12.72 9.72c3.68 1.36 6.76 3.92 9.24 7.68 2.56 3.68 5.2 8.4 7.92 14.16 1.6 3.36 2.88 5.88 3.84 7.56.96 1.6 1.96 2.52 3 2.76l3.48 1.08v7.92h-22.8c-1.2 0-2.44-1.28-3.72-3.84s-2.92-6.56-4.92-12c-2.48-6.64-4.64-11.76-6.48-15.36-1.76-3.68-3.72-5.92-5.88-6.72h-10.8v28.8l10.68 1.2v7.92h-40.44zm39-37.8c4.16 0 7.4-1.6 9.72-4.8 2.32-3.28 3.48-8.2 3.48-14.76 0-5.76-1.16-9.96-3.48-12.6-2.24-2.72-6.04-4.08-11.4-4.08-2.88 0-5.4.2-7.56.6v35.28c1.04.24 2.76.36 5.16.36zm76.14-43.8h21.6l26.88 80.4 6.6 1.2v7.92h-37.8v-7.92l8.52-1.2-4.08-14.4h-28.68l-4.08 14.52 9.36 1.08v7.92h-31.92l-.12-7.92 6.96-1.32zm8.88 20.88-1.8-8.4-1.92 8.52-9.72 35.76h23.76zm57.96-10.44-9-1.68v-8.4h40.92v8.4l-11.4 1.68v69.72l22.56-1.2 7.8-23.76 11.28 1.44-3.48 32.88h-67.92v-7.92l9.24-1.2zm105.35-.12-8.64-1.56v-8.4h38.88v8.4l-9.84 1.56v28.68h32.88v-28.56l-9-1.68v-8.4h38.4v8.4l-8.88 1.56v70.08l8.88 1.2v7.92h-38.4v-7.92l9-1.32v-31.08h-32.88v31.2l9.84 1.2v7.92h-39.12v-7.92l8.88-1.2zm118.67-10.32h21.6l26.88 80.4 6.6 1.2v7.92h-37.8v-7.92l8.52-1.2-4.08-14.4h-28.68l-4.08 14.52 9.36 1.08v7.92h-31.92l-.12-7.92 6.96-1.32zm8.88 20.88-1.8-8.4-1.92 8.52-9.72 35.76h23.76zm59.16-10.44-9.84-1.68v-8.4h40.44v8.4l-10.08 1.68v69.96l10.08 1.32v7.8h-40.32v-7.92l9.72-1.32zm39.48 71.16 9.24-1.2v-70.08l-8.76-1.68v-8.28h18.48c1.52 0 3.16-.04 4.92-.12 1.84-.08 3.24-.16 4.2-.24 4.32-.32 8-.48 11.04-.48 8.56 0 15.36.84 20.4 2.52 5.04 1.6 8.68 4.16 10.92 7.68 2.32 3.44 3.48 8 3.48 13.68 0 5.44-1.44 10.52-4.32 15.24s-7.12 7.96-12.72 9.72c3.68 1.36 6.76 3.92 9.24 7.68 2.56 3.68 5.2 8.4 7.92 14.16 1.6 3.36 2.88 5.88 3.84 7.56.96 1.6 1.96 2.52 3 2.76l3.48 1.08v7.92h-22.8c-1.2 0-2.44-1.28-3.72-3.84s-2.92-6.56-4.92-12c-2.48-6.64-4.64-11.76-6.48-15.36-1.76-3.68-3.72-5.92-5.88-6.72h-10.8v28.8l10.68 1.2v7.92h-40.44zm39-37.8c4.16 0 7.4-1.6 9.72-4.8 2.32-3.28 3.48-8.2 3.48-14.76 0-5.76-1.16-9.96-3.48-12.6-2.24-2.72-6.04-4.08-11.4-4.08-2.88 0-5.4.2-7.56.6v35.28c1.04.24 2.76.36 5.16.36zm109.29 47.04c-4.4 0-8.48-.36-12.24-1.08-3.68-.72-7.56-1.68-11.64-2.88-2.64-.8-4.56-1.24-5.76-1.32l1.08-22.44h11.16l3 15.36c.88 1.04 2.48 1.96 4.8 2.76 2.4.8 5.24 1.2 8.52 1.2 4.88 0 8.52-1.08 10.92-3.24 2.48-2.16 3.72-5.12 3.72-8.88 0-2.64-.8-4.92-2.4-6.84-1.52-2-3.68-3.8-6.48-5.4-2.72-1.68-6.48-3.6-11.28-5.76-6.32-2.88-11.68-6.52-16.08-10.92-4.32-4.48-6.48-10.36-6.48-17.64 0-4.48 1.16-8.56 3.48-12.24s5.84-6.64 10.56-8.88 10.6-3.36 17.64-3.36c4.24 0 7.92.28 11.04.84 3.2.56 6.6 1.32 10.2 2.28 1.92.64 3.4 1 4.44 1.08l-.72 21.36h-10.92l-2.76-14.76c-.56-.72-1.84-1.36-3.84-1.92-1.92-.64-4.08-.96-6.48-.96-4.4 0-7.72 1.04-9.96 3.12-2.16 2.08-3.24 4.76-3.24 8.04 0 2.88.92 5.4 2.76 7.56s4.04 4 6.6 5.52c2.64 1.44 6.64 3.48 12 6.12 4.24 2.08 7.92 4.2 11.04 6.36 3.2 2.08 5.92 4.8 8.16 8.16s3.36 7.28 3.36 11.76c0 4.4-1.08 8.64-3.24 12.72-2.08 4.08-5.68 7.48-10.8 10.2s-11.84 4.08-20.16 4.08zm68.44-90.84h21.6l26.88 80.4 6.6 1.2v7.92h-37.8v-7.92l8.52-1.2-4.08-14.4h-28.68l-4.08 14.52 9.36 1.08v7.92h-31.92l-.12-7.92 6.96-1.32zm8.88 20.88-1.8-8.4-1.92 8.52-9.72 35.76h23.76zm57.97-10.44-9-1.68v-8.4h40.92v8.4l-11.4 1.68v69.72l22.56-1.2 7.8-23.76 11.28 1.44-3.48 32.88h-67.92v-7.92l9.24-1.2zm106.27 80.4c-13.44 0-23.4-4.04-29.88-12.12-6.48-8.16-9.72-19.36-9.72-33.6 0-9.2 1.68-17.24 5.04-24.12 3.44-6.96 8.24-12.32 14.4-16.08s13.36-5.64 21.6-5.64c13.76 0 23.88 3.84 30.36 11.52 6.56 7.6 9.84 18.48 9.84 32.64 0 9.36-1.72 17.64-5.16 24.84-3.44 7.12-8.32 12.68-14.64 16.68-6.24 3.92-13.52 5.88-21.84 5.88zm1.08-83.64c-5.76 0-10.24 3.16-13.44 9.48-3.12 6.32-4.68 15.76-4.68 28.32 0 12.8 1.56 22.32 4.68 28.56 3.12 6.16 7.56 9.24 13.32 9.24 5.68 0 10.08-3.36 13.2-10.08 3.2-6.8 4.8-16.52 4.8-29.16 0-12.8-1.52-22.04-4.56-27.72-3.04-5.76-7.48-8.64-13.32-8.64zm57.42 3.12-9.36-1.56v-8.4h30.12l33.12 51.12 6.72 14.4v-55.56l-10.2-1.56v-8.4h30.72v8.4l-9.12 1.56v79.2h-17.64l-35.16-54.84-7.92-15.84v61.44l12.72 1.32v7.92h-33.36v-7.92l9.36-1.32z"/></g><path d="m916 194h1482" stroke="#000" stroke-width="15"/><path d="m916 389h1482" stroke="#000" stroke-width="15"/><path d="m901 632.5h1482" stroke="#000" stroke-width="5"/><path d="m932.648 472v-33.6h6.576v27.6h14.784v6zm40.485.576c-3.392 0-6.4-.736-9.024-2.208-2.592-1.504-4.624-3.552-6.096-6.144-1.472-2.624-2.208-5.616-2.208-8.976 0-3.424.736-6.432 2.208-9.024 1.472-2.624 3.488-4.672 6.048-6.144 2.592-1.472 5.568-2.208 8.928-2.208 3.392 0 6.368.752 8.928 2.256 2.592 1.472 4.624 3.52 6.096 6.144 1.472 2.592 2.208 5.584 2.208 8.976 0 3.36-.736 6.352-2.208 8.976-1.44 2.592-3.456 4.64-6.048 6.144-2.56 1.472-5.504 2.208-8.832 2.208zm0-6c2.048 0 3.84-.48 5.376-1.44 1.568-.992 2.784-2.336 3.648-4.032.896-1.696 1.344-3.648 1.344-5.856 0-2.24-.448-4.208-1.344-5.904s-2.128-3.024-3.696-3.984c-1.568-.992-3.392-1.488-5.472-1.488-2.016 0-3.824.496-5.424 1.488-1.568.96-2.8 2.288-3.696 3.984s-1.344 3.664-1.344 5.904c0 2.208.448 4.16 1.344 5.856s2.144 3.04 3.744 4.032c1.6.96 3.44 1.44 5.52 1.44zm37.257 6c-3.27 0-6.16-.736-8.69-2.208-2.53-1.504-4.514-3.552-5.954-6.144-1.44-2.624-2.16-5.632-2.16-9.024s.72-6.384 2.16-8.976c1.44-2.624 3.408-4.672 5.904-6.144 2.53-1.504 5.42-2.256 8.69-2.256 2.3 0 4.45.416 6.43 1.248 1.98.8 3.71 1.936 5.18 3.408 1.51 1.44 2.66 3.104 3.46 4.992l-6.1 2.256c-.54-1.184-1.26-2.208-2.16-3.072-.89-.896-1.92-1.584-3.07-2.064-1.15-.512-2.4-.768-3.74-.768-1.95 0-3.7.496-5.23 1.488-1.51.96-2.69 2.288-3.56 3.984-.83 1.696-1.24 3.664-1.24 5.904s.43 4.224 1.29 5.952c.87 1.696 2.07 3.04 3.6 4.032 1.54.96 3.3 1.44 5.28 1.44 1.38 0 2.63-.256 3.75-.768 1.15-.544 2.16-1.28 3.02-2.208.9-.928 1.62-2 2.16-3.216l6.1 2.208c-.8 1.952-1.96 3.68-3.46 5.184-1.47 1.504-3.2 2.672-5.18 3.504-1.99.832-4.15 1.248-6.48 1.248zm31.23 0c-1.7 0-3.28-.208-4.76-.624-1.47-.416-2.78-.992-3.93-1.728-1.15-.768-2.11-1.616-2.88-2.544-.74-.928-1.22-1.904-1.44-2.928l6.43-1.92c.42 1.088 1.15 2.032 2.21 2.832 1.05.768 2.38 1.168 3.98 1.2 1.7.032 3.07-.336 4.13-1.104 1.09-.768 1.63-1.76 1.63-2.976 0-1.056-.43-1.936-1.29-2.64-.84-.736-1.99-1.296-3.46-1.68l-4.37-1.152c-1.63-.416-3.07-1.04-4.32-1.872-1.25-.864-2.22-1.92-2.93-3.168-.7-1.248-1.05-2.704-1.05-4.368 0-3.168 1.04-5.632 3.12-7.392 2.11-1.792 5.09-2.688 8.93-2.688 2.14 0 4.01.32 5.61.96 1.63.608 2.99 1.488 4.08 2.64s1.92 2.512 2.5 4.08l-6.39 1.968c-.38-1.088-1.08-2.016-2.11-2.784-1.02-.768-2.32-1.152-3.89-1.152-1.6 0-2.86.368-3.79 1.104-.89.736-1.34 1.776-1.34 3.12 0 1.056.35 1.888 1.05 2.496.74.608 1.73 1.072 2.98 1.392l4.42 1.104c2.88.704 5.12 1.968 6.72 3.792s2.4 3.856 2.4 6.096c0 1.984-.48 3.728-1.44 5.232-.96 1.472-2.36 2.624-4.18 3.456s-4.03 1.248-6.62 1.248zm-108.972 66.424v-33.6h12.48c2.368 0 4.464.48 6.288 1.44 1.824.928 3.248 2.24 4.272 3.936 1.024 1.664 1.536 3.6 1.536 5.808 0 2.176-.496 4.112-1.488 5.808s-2.352 3.04-4.08 4.032c-1.728.96-3.728 1.44-6 1.44h-6.432v11.136zm6.576-17.184h6.288c1.472 0 2.672-.48 3.6-1.44.96-.992 1.44-2.256 1.44-3.792s-.528-2.784-1.584-3.744c-1.024-.96-2.352-1.44-3.984-1.44h-5.76zm22.346 17.184v-33.6h21.264v6h-14.688v7.632h12.672v5.856h-12.672v8.112h14.88v6zm28.266 0v-33.6h10.754c3.42 0 6.45.72 9.07 2.16 2.66 1.44 4.72 3.424 6.19 5.952 1.51 2.496 2.26 5.392 2.26 8.688 0 3.264-.75 6.16-2.26 8.688-1.47 2.528-3.53 4.512-6.19 5.952-2.62 1.44-5.65 2.16-9.07 2.16zm6.576-6.144h4.178c1.53 0 2.96-.272 4.27-.816s2.45-1.296 3.41-2.256c.99-.96 1.76-2.08 2.3-3.36.55-1.312.82-2.72.82-4.224s-.27-2.896-.82-4.176c-.54-1.312-1.31-2.448-2.3-3.408-.96-.96-2.1-1.712-3.41-2.256s-2.74-.816-4.27-.816h-4.178zm27.028 6.144v-33.6h6.58v33.6zm28.71.576c-3.26 0-6.16-.736-8.69-2.208-2.52-1.504-4.51-3.552-5.95-6.144-1.44-2.624-2.16-5.632-2.16-9.024s.72-6.384 2.16-8.976c1.44-2.624 3.41-4.672 5.91-6.144 2.52-1.504 5.42-2.256 8.68-2.256 2.31 0 4.45.416 6.44 1.248 1.98.8 3.71 1.936 5.18 3.408 1.5 1.44 2.66 3.104 3.46 4.992l-6.1 2.256c-.54-1.184-1.26-2.208-2.16-3.072-.9-.896-1.92-1.584-3.07-2.064-1.15-.512-2.4-.768-3.75-.768-1.95 0-3.69.496-5.23 1.488-1.5.96-2.69 2.288-3.55 3.984-.83 1.696-1.25 3.664-1.25 5.904s.43 4.224 1.3 5.952c.86 1.696 2.06 3.04 3.6 4.032 1.53.96 3.29 1.44 5.28 1.44 1.37 0 2.62-.256 3.74-.768 1.15-.544 2.16-1.28 3.03-2.208.89-.928 1.61-2 2.16-3.216l6.09 2.208c-.8 1.952-1.95 3.68-3.45 5.184-1.48 1.504-3.2 2.672-5.19 3.504-1.98.832-4.14 1.248-6.48 1.248zm33.1.096c-2.78 0-5.2-.544-7.24-1.632-2.05-1.088-3.64-2.608-4.76-4.56-1.08-1.984-1.63-4.32-1.63-7.008v-21.072h6.58v21.072c0 1.44.29 2.704.86 3.792.61 1.056 1.44 1.872 2.5 2.448 1.09.576 2.35.864 3.79.864s2.69-.288 3.74-.864c1.09-.576 1.92-1.392 2.5-2.448.61-1.088.91-2.352.91-3.792v-21.072h6.58v21.072c0 2.688-.58 5.024-1.73 7.008-1.12 1.952-2.72 3.472-4.8 4.56-2.05 1.088-4.48 1.632-7.3 1.632zm20.65-.672v-33.6h12.48c2.37 0 4.46.464 6.29 1.392 1.82.928 3.24 2.208 4.27 3.84 1.02 1.6 1.53 3.472 1.53 5.616 0 2.112-.54 4-1.63 5.664-1.05 1.632-2.51 2.912-4.37 3.84-1.85.896-3.96 1.344-6.33 1.344h-5.67v11.904zm18.48 0-7.78-13.488 5.04-3.6 10.18 17.088zm-11.91-17.904h5.96c.99 0 1.87-.208 2.64-.624.8-.416 1.42-.992 1.87-1.728.48-.736.72-1.568.72-2.496 0-1.44-.53-2.608-1.59-3.504-1.02-.896-2.35-1.344-3.98-1.344h-5.62zm24.37 17.904v-33.6h21.26v6h-14.69v7.632h12.67v5.856h-12.67v8.112h14.88v6zm-204.192 67v-33.6h7.152l9.792 14.496 9.792-14.496h7.104v33.6h-6.528v-23.328l-10.368 15.264-10.368-15.216v23.28zm64.436 0-12.864-33.6h6.576l13.244 33.6zm-26.544 0 13.248-33.6h6.576l-12.864 33.6zm6.24-7.392v-5.808h21.072v5.808zm31.29 7.392v-33.6h6.86l16.42 22.56v-22.56h6.53v33.6h-6.53l-16.7-22.992v22.992zm37.12 0v-33.6h6.58v33.6zm28.71.576c-3.26 0-6.16-.736-8.69-2.208-2.52-1.504-4.51-3.552-5.95-6.144-1.44-2.624-2.16-5.632-2.16-9.024s.72-6.384 2.16-8.976c1.44-2.624 3.41-4.672 5.91-6.144 2.52-1.504 5.42-2.256 8.68-2.256 2.31 0 4.45.416 6.44 1.248 1.98.8 3.71 1.936 5.18 3.408 1.5 1.44 2.66 3.104 3.46 4.992l-6.1 2.256c-.54-1.184-1.26-2.208-2.16-3.072-.9-.896-1.92-1.584-3.07-2.064-1.15-.512-2.4-.768-3.75-.768-1.95 0-3.69.496-5.23 1.488-1.5.96-2.69 2.288-3.55 3.984-.83 1.696-1.25 3.664-1.25 5.904s.43 4.224 1.3 5.952c.86 1.696 2.06 3.04 3.6 4.032 1.53.96 3.29 1.44 5.28 1.44 1.37 0 2.62-.256 3.74-.768 1.15-.544 2.16-1.28 3.03-2.208.89-.928 1.61-2 2.16-3.216l6.09 2.208c-.8 1.952-1.95 3.68-3.45 5.184-1.48 1.504-3.2 2.672-5.19 3.504-1.98.832-4.14 1.248-6.48 1.248zm33.1.096c-2.78 0-5.2-.544-7.24-1.632-2.05-1.088-3.64-2.608-4.76-4.56-1.08-1.984-1.63-4.32-1.63-7.008v-21.072h6.58v21.072c0 1.44.29 2.704.86 3.792.61 1.056 1.44 1.872 2.5 2.448 1.09.576 2.35.864 3.79.864s2.69-.288 3.74-.864c1.09-.576 1.92-1.392 2.5-2.448.61-1.088.91-2.352.91-3.792v-21.072h6.58v21.072c0 2.688-.58 5.024-1.73 7.008-1.12 1.952-2.72 3.472-4.8 4.56-2.05 1.088-4.48 1.632-7.3 1.632zm20.65-.672v-33.6h12.48c2.37 0 4.46.464 6.29 1.392 1.82.928 3.24 2.208 4.27 3.84 1.02 1.6 1.53 3.472 1.53 5.616 0 2.112-.54 4-1.63 5.664-1.05 1.632-2.51 2.912-4.37 3.84-1.85.896-3.96 1.344-6.33 1.344h-5.67v11.904zm18.48 0-7.78-13.488 5.04-3.6 10.18 17.088zm-11.91-17.904h5.96c.99 0 1.87-.208 2.64-.624.8-.416 1.42-.992 1.87-1.728.48-.736.72-1.568.72-2.496 0-1.44-.53-2.608-1.59-3.504-1.02-.896-2.35-1.344-3.98-1.344h-5.62zm24.37 17.904v-33.6h21.26v6h-14.69v7.632h12.67v5.856h-12.67v8.112h14.88v6z" fill="#000"/><path d="m2101.65 472v-33.6h11.37c2.31 0 4.32.352 6.05 1.056s3.07 1.776 4.03 3.216c.96 1.408 1.44 3.168 1.44 5.28 0 1.312-.33 2.528-1 3.648-.64 1.088-1.56 2.032-2.74 2.832 1.57.8 2.77 1.872 3.6 3.216.86 1.312 1.3 2.896 1.3 4.752 0 2.048-.47 3.792-1.4 5.232-.92 1.44-2.22 2.528-3.88 3.264-1.67.736-3.62 1.104-5.86 1.104zm6.43-5.808h5.86c1.56 0 2.8-.384 3.69-1.152.9-.8 1.35-1.856 1.35-3.168 0-1.376-.5-2.448-1.49-3.216-.99-.8-2.35-1.2-4.08-1.2h-5.33zm0-14.112h5.09c1.44 0 2.57-.368 3.41-1.104.83-.736 1.24-1.776 1.24-3.12s-.46-2.384-1.39-3.12-2.19-1.104-3.79-1.104h-4.56zm22.96 19.92v-33.6h12.48c2.37 0 4.46.464 6.29 1.392 1.82.928 3.24 2.208 4.27 3.84 1.02 1.6 1.53 3.472 1.53 5.616 0 2.112-.54 4-1.63 5.664-1.05 1.632-2.51 2.912-4.37 3.84-1.85.896-3.96 1.344-6.33 1.344h-5.67v11.904zm18.48 0-7.78-13.488 5.04-3.6 10.18 17.088zm-11.91-17.904h5.96c.99 0 1.87-.208 2.64-.624.8-.416 1.42-.992 1.87-1.728.48-.736.72-1.568.72-2.496 0-1.44-.53-2.608-1.59-3.504-1.02-.896-2.35-1.344-3.98-1.344h-5.62zm47.93 17.904-12.87-33.6h6.58l13.25 33.6zm-26.55 0 13.25-33.6h6.58l-12.87 33.6zm6.24-7.392v-5.808h21.08v5.808zm31.29 7.392v-33.6h6.58v33.6zm13.88 0v-33.6h10.75c3.42 0 6.45.72 9.07 2.16 2.66 1.44 4.72 3.424 6.19 5.952 1.51 2.496 2.26 5.392 2.26 8.688 0 3.264-.75 6.16-2.26 8.688-1.47 2.528-3.53 4.512-6.19 5.952-2.62 1.44-5.65 2.16-9.07 2.16zm6.57-6.144h4.18c1.54 0 2.96-.272 4.27-.816s2.45-1.296 3.41-2.256c.99-.96 1.76-2.08 2.3-3.36.55-1.312.82-2.72.82-4.224s-.27-2.896-.82-4.176c-.54-1.312-1.31-2.448-2.3-3.408-.96-.96-2.1-1.712-3.41-2.256s-2.73-.816-4.27-.816h-4.18zm38.32 6.72c-1.7 0-3.28-.208-4.75-.624-1.48-.416-2.79-.992-3.94-1.728-1.15-.768-2.11-1.616-2.88-2.544-.74-.928-1.22-1.904-1.44-2.928l6.43-1.92c.42 1.088 1.15 2.032 2.21 2.832 1.06.768 2.38 1.168 3.98 1.2 1.7.032 3.08-.336 4.13-1.104 1.09-.768 1.63-1.76 1.63-2.976 0-1.056-.43-1.936-1.29-2.64-.83-.736-1.99-1.296-3.46-1.68l-4.37-1.152c-1.63-.416-3.07-1.04-4.32-1.872-1.24-.864-2.22-1.92-2.92-3.168-.71-1.248-1.06-2.704-1.06-4.368 0-3.168 1.04-5.632 3.12-7.392 2.11-1.792 5.09-2.688 8.93-2.688 2.14 0 4.01.32 5.61.96 1.64.608 3 1.488 4.08 2.64 1.09 1.152 1.92 2.512 2.5 4.08l-6.38 1.968c-.39-1.088-1.09-2.016-2.12-2.784-1.02-.768-2.32-1.152-3.88-1.152-1.6 0-2.87.368-3.8 1.104-.89.736-1.34 1.776-1.34 3.12 0 1.056.35 1.888 1.06 2.496.73.608 1.72 1.072 2.97 1.392l4.42 1.104c2.88.704 5.12 1.968 6.72 3.792s2.4 3.856 2.4 6.096c0 1.984-.48 3.728-1.44 5.232-.96 1.472-2.35 2.624-4.18 3.456-1.82.832-4.03 1.248-6.62 1.248zm-146.54 66.424v-27.6h-10.08v-6h26.69v6h-10.03v27.6zm47.86 0 9.65-33.6h6.67l-10.03 33.6zm-20.26 0-9.93-33.6h6.67l9.55 33.6zm.87 0 9.16-33.6h5.96l-9.12 33.6zm18.76 0-9.02-33.6h5.95l9.36 33.6zm21 0v-33.6h6.57v33.6zm25.15.576c-1.69 0-3.28-.208-4.75-.624s-2.78-.992-3.94-1.728c-1.15-.768-2.11-1.616-2.88-2.544-.73-.928-1.21-1.904-1.44-2.928l6.44-1.92c.41 1.088 1.15 2.032 2.2 2.832 1.06.768 2.39 1.168 3.99 1.2 1.69.032 3.07-.336 4.13-1.104 1.08-.768 1.63-1.76 1.63-2.976 0-1.056-.43-1.936-1.3-2.64-.83-.736-1.98-1.296-3.45-1.68l-4.37-1.152c-1.63-.416-3.07-1.04-4.32-1.872-1.25-.864-2.23-1.92-2.93-3.168s-1.06-2.704-1.06-4.368c0-3.168 1.04-5.632 3.12-7.392 2.12-1.792 5.09-2.688 8.93-2.688 2.15 0 4.02.32 5.62.96 1.63.608 2.99 1.488 4.08 2.64s1.92 2.512 2.49 4.08l-6.38 1.968c-.38-1.088-1.09-2.016-2.11-2.784-1.03-.768-2.32-1.152-3.89-1.152-1.6 0-2.86.368-3.79 1.104-.9.736-1.35 1.776-1.35 3.12 0 1.056.36 1.888 1.06 2.496.74.608 1.73 1.072 2.98 1.392l4.41 1.104c2.88.704 5.12 1.968 6.72 3.792s2.4 3.856 2.4 6.096c0 1.984-.48 3.728-1.44 5.232-.96 1.472-2.35 2.624-4.17 3.456-1.83.832-4.04 1.248-6.63 1.248zm24.98-.576v-27.6h-10.08v-6h26.69v6h-10.03v27.6zm32.21.576c-1.7 0-3.28-.208-4.75-.624-1.48-.416-2.79-.992-3.94-1.728-1.15-.768-2.11-1.616-2.88-2.544-.74-.928-1.22-1.904-1.44-2.928l6.43-1.92c.42 1.088 1.15 2.032 2.21 2.832 1.06.768 2.38 1.168 3.98 1.2 1.7.032 3.08-.336 4.13-1.104 1.09-.768 1.63-1.76 1.63-2.976 0-1.056-.43-1.936-1.29-2.64-.83-.736-1.99-1.296-3.46-1.68l-4.37-1.152c-1.63-.416-3.07-1.04-4.32-1.872-1.24-.864-2.22-1.92-2.92-3.168-.71-1.248-1.06-2.704-1.06-4.368 0-3.168 1.04-5.632 3.12-7.392 2.11-1.792 5.09-2.688 8.93-2.688 2.14 0 4.01.32 5.61.96 1.64.608 3 1.488 4.08 2.64 1.09 1.152 1.92 2.512 2.5 4.08l-6.38 1.968c-.39-1.088-1.09-2.016-2.12-2.784-1.02-.768-2.32-1.152-3.88-1.152-1.6 0-2.87.368-3.8 1.104-.89.736-1.34 1.776-1.34 3.12 0 1.056.35 1.888 1.06 2.496.73.608 1.72 1.072 2.97 1.392l4.42 1.104c2.88.704 5.12 1.968 6.72 3.792s2.4 3.856 2.4 6.096c0 1.984-.48 3.728-1.44 5.232-.96 1.472-2.35 2.624-4.18 3.456-1.82.832-4.03 1.248-6.62 1.248zm-150.57 66.424v-27.6h-10.08v-6h26.69v6h-10.03v27.6zm43.06 0v-33.6h6.57v33.6zm-22.13 0v-33.648h6.58v33.648zm4.9-14.16v-6.048h20.35v6.048zm31.1 14.16v-33.6h12.48c2.37 0 4.46.464 6.29 1.392 1.82.928 3.25 2.208 4.27 3.84 1.02 1.6 1.54 3.472 1.54 5.616 0 2.112-.55 4-1.64 5.664-1.05 1.632-2.51 2.912-4.36 3.84-1.86.896-3.97 1.344-6.34 1.344h-5.66v11.904zm18.48 0-7.78-13.488 5.04-3.6 10.18 17.088zm-11.9-17.904h5.95c.99 0 1.87-.208 2.64-.624.8-.416 1.42-.992 1.87-1.728.48-.736.72-1.568.72-2.496 0-1.44-.53-2.608-1.58-3.504-1.03-.896-2.36-1.344-3.99-1.344h-5.61zm24.36 17.904v-33.6h21.26v6h-14.69v7.632h12.67v5.856h-12.67v8.112h14.88v6zm51.54 0-12.86-33.6h6.57l13.25 33.6zm-26.54 0 13.25-33.6h6.57l-12.86 33.6zm6.24-7.392v-5.808h21.07v5.808zm31.29 7.392v-33.6h10.75c3.42 0 6.45.72 9.07 2.16 2.66 1.44 4.72 3.424 6.19 5.952 1.51 2.496 2.26 5.392 2.26 8.688 0 3.264-.75 6.16-2.26 8.688-1.47 2.528-3.53 4.512-6.19 5.952-2.62 1.44-5.65 2.16-9.07 2.16zm6.57-6.144h4.18c1.54 0 2.96-.272 4.27-.816s2.45-1.296 3.41-2.256c.99-.96 1.76-2.08 2.3-3.36.55-1.312.82-2.72.82-4.224s-.27-2.896-.82-4.176c-.54-1.312-1.31-2.448-2.3-3.408-.96-.96-2.1-1.712-3.41-2.256s-2.73-.816-4.27-.816h-4.18zm27.04 6.144v-33.6h6.57v33.6zm13.87 0v-33.6h6.87l16.41 22.56v-22.56h6.53v33.6h-6.53l-16.7-22.992v22.992zm52.73.576c-3.43 0-6.47-.736-9.12-2.208-2.63-1.504-4.69-3.552-6.19-6.144-1.51-2.624-2.26-5.632-2.26-9.024s.75-6.384 2.26-8.976c1.5-2.624 3.56-4.672 6.19-6.144 2.65-1.504 5.69-2.256 9.12-2.256 2.05 0 3.93.304 5.66.912s3.25 1.456 4.56 2.544c1.35 1.056 2.47 2.272 3.36 3.648l-5.37 3.36c-.55-.864-1.27-1.632-2.16-2.304-.87-.672-1.83-1.2-2.88-1.584-1.06-.384-2.12-.576-3.17-.576-2.11 0-3.99.496-5.62 1.488-1.63.96-2.91 2.288-3.84 3.984s-1.39 3.664-1.39 5.904c0 2.208.45 4.176 1.34 5.904.93 1.728 2.23 3.088 3.89 4.08 1.67.96 3.59 1.44 5.76 1.44 1.7 0 3.2-.336 4.51-1.008 1.35-.672 2.4-1.616 3.17-2.832s1.15-2.624 1.15-4.224l6.24-.96c0 3.168-.65 5.872-1.96 8.112-1.28 2.24-3.08 3.952-5.38 5.136-2.27 1.152-4.9 1.728-7.87 1.728zm1.1-13.44v-5.136h14.11v4.08l-3.55 1.056z" fill="#000"/><path d="m1396.65 472v-33.6h11.37c2.31 0 4.32.352 6.05 1.056s3.07 1.776 4.03 3.216c.96 1.408 1.44 3.168 1.44 5.28 0 1.312-.33 2.528-1 3.648-.64 1.088-1.56 2.032-2.74 2.832 1.57.8 2.77 1.872 3.6 3.216.86 1.312 1.3 2.896 1.3 4.752 0 2.048-.47 3.792-1.4 5.232-.92 1.44-2.22 2.528-3.88 3.264-1.67.736-3.62 1.104-5.86 1.104zm6.43-5.808h5.86c1.56 0 2.8-.384 3.69-1.152.9-.8 1.35-1.856 1.35-3.168 0-1.376-.5-2.448-1.49-3.216-.99-.8-2.35-1.2-4.08-1.2h-5.33zm0-14.112h5.09c1.44 0 2.57-.368 3.41-1.104.83-.736 1.24-1.776 1.24-3.12s-.46-2.384-1.39-3.12-2.19-1.104-3.79-1.104h-4.56zm22.96 19.92v-33.6h12.48c2.37 0 4.46.464 6.29 1.392 1.82.928 3.24 2.208 4.27 3.84 1.02 1.6 1.53 3.472 1.53 5.616 0 2.112-.54 4-1.63 5.664-1.05 1.632-2.51 2.912-4.37 3.84-1.85.896-3.96 1.344-6.33 1.344h-5.67v11.904zm18.48 0-7.78-13.488 5.04-3.6 10.18 17.088zm-11.91-17.904h5.96c.99 0 1.87-.208 2.64-.624.8-.416 1.42-.992 1.87-1.728.48-.736.72-1.568.72-2.496 0-1.44-.53-2.608-1.59-3.504-1.02-.896-2.35-1.344-3.98-1.344h-5.62zm24.37 17.904v-33.6h6.57v33.6zm13.87 0v-33.6h10.75c3.43 0 6.45.72 9.08 2.16 2.65 1.44 4.72 3.424 6.19 5.952 1.5 2.496 2.25 5.392 2.25 8.688 0 3.264-.75 6.16-2.25 8.688-1.47 2.528-3.54 4.512-6.19 5.952-2.63 1.44-5.65 2.16-9.08 2.16zm6.58-6.144h4.17c1.54 0 2.96-.272 4.28-.816 1.31-.544 2.44-1.296 3.4-2.256 1-.96 1.76-2.08 2.31-3.36.54-1.312.81-2.72.81-4.224s-.27-2.896-.81-4.176c-.55-1.312-1.31-2.448-2.31-3.408-.96-.96-2.09-1.712-3.4-2.256-1.32-.544-2.74-.816-4.28-.816h-4.17zm50.31 6.144-12.86-33.6h6.57l13.25 33.6zm-26.54 0 13.24-33.6h6.58l-12.86 33.6zm6.24-7.392v-5.808h21.07v5.808zm31.29 7.392v-33.6h6.57v27.6h14.79v6zm48.49.576c-1.69 0-3.28-.208-4.75-.624s-2.78-.992-3.93-1.728c-1.16-.768-2.12-1.616-2.88-2.544-.74-.928-1.22-1.904-1.44-2.928l6.43-1.92c.41 1.088 1.15 2.032 2.21 2.832 1.05.768 2.38 1.168 3.98 1.2 1.7.032 3.07-.336 4.13-1.104 1.09-.768 1.63-1.76 1.63-2.976 0-1.056-.43-1.936-1.3-2.64-.83-.736-1.98-1.296-3.45-1.68l-4.37-1.152c-1.63-.416-3.07-1.04-4.32-1.872-1.25-.864-2.22-1.92-2.93-3.168-.7-1.248-1.05-2.704-1.05-4.368 0-3.168 1.04-5.632 3.12-7.392 2.11-1.792 5.08-2.688 8.92-2.688 2.15 0 4.02.32 5.62.96 1.63.608 2.99 1.488 4.08 2.64s1.92 2.512 2.5 4.08l-6.39 1.968c-.38-1.088-1.09-2.016-2.11-2.784s-2.32-1.152-3.89-1.152c-1.6 0-2.86.368-3.79 1.104-.9.736-1.34 1.776-1.34 3.12 0 1.056.35 1.888 1.05 2.496.74.608 1.73 1.072 2.98 1.392l4.41 1.104c2.88.704 5.12 1.968 6.72 3.792s2.4 3.856 2.4 6.096c0 1.984-.48 3.728-1.44 5.232-.96 1.472-2.35 2.624-4.17 3.456-1.83.832-4.03 1.248-6.63 1.248zm24.99-.576v-27.6h-10.08v-6h26.68v6h-10.03v27.6zm35.9-13.872-6.19-1.584 10.8-18.144h7.48zm-6.39 13.872v-16.128h6.58v16.128zm.2-13.872-12.1-19.728h7.49l10.8 18.144zm22.29 13.872v-33.6h6.58v27.6h14.78v6zm25.78 0v-33.6h6.58v33.6zm13.88 0v-33.6h6.86l16.42 22.56v-22.56h6.52v33.6h-6.52l-16.71-22.992v22.992zm52.72.576c-3.42 0-6.46-.736-9.12-2.208-2.62-1.504-4.69-3.552-6.19-6.144-1.5-2.624-2.26-5.632-2.26-9.024s.76-6.384 2.26-8.976c1.5-2.624 3.57-4.672 6.19-6.144 2.66-1.504 5.7-2.256 9.12-2.256 2.05 0 3.94.304 5.67.912 1.72.608 3.24 1.456 4.56 2.544 1.34 1.056 2.46 2.272 3.36 3.648l-5.38 3.36c-.54-.864-1.26-1.632-2.16-2.304-.86-.672-1.82-1.2-2.88-1.584s-2.11-.576-3.17-.576c-2.11 0-3.98.496-5.61 1.488-1.64.96-2.92 2.288-3.84 3.984-.93 1.696-1.4 3.664-1.4 5.904 0 2.208.45 4.176 1.35 5.904.93 1.728 2.22 3.088 3.89 4.08 1.66.96 3.58 1.44 5.76 1.44 1.69 0 3.2-.336 4.51-1.008 1.34-.672 2.4-1.616 3.17-2.832.76-1.216 1.15-2.624 1.15-4.224l6.24-.96c0 3.168-.66 5.872-1.97 8.112-1.28 2.24-3.07 3.952-5.38 5.136-2.27 1.152-4.89 1.728-7.87 1.728zm1.11-13.44v-5.136h14.11v4.08l-3.55 1.056zm-338.92 79.864v-33.6h6.57v33.6zm-22.13 0v-33.648h6.57v33.648zm4.89-14.16v-6.048h20.36v6.048zm54.39 14.16-12.87-33.6h6.58l13.25 33.6zm-26.55 0 13.25-33.6h6.58l-12.87 33.6zm6.24-7.392v-5.808h21.08v5.808zm31.29 7.392v-33.6h6.58v33.6zm13.88 0v-33.6h12.48c2.37 0 4.46.464 6.29 1.392 1.82.928 3.24 2.208 4.27 3.84 1.02 1.6 1.53 3.472 1.53 5.616 0 2.112-.54 4-1.63 5.664-1.05 1.632-2.51 2.912-4.37 3.84-1.85.896-3.96 1.344-6.33 1.344h-5.67v11.904zm18.48 0-7.78-13.488 5.04-3.6 10.18 17.088zm-11.91-17.904h5.96c.99 0 1.87-.208 2.64-.624.8-.416 1.42-.992 1.87-1.728.48-.736.72-1.568.72-2.496 0-1.44-.53-2.608-1.59-3.504-1.02-.896-2.35-1.344-3.98-1.344h-5.62zm42.91 17.904v-27.6h-10.08v-6h26.69v6h-10.04v27.6zm20.92 0v-33.6h12.48c2.37 0 4.47.464 6.29 1.392 1.83.928 3.25 2.208 4.27 3.84 1.03 1.6 1.54 3.472 1.54 5.616 0 2.112-.54 4-1.63 5.664-1.06 1.632-2.51 2.912-4.37 3.84-1.86.896-3.97 1.344-6.34 1.344h-5.66v11.904zm18.48 0-7.77-13.488 5.04-3.6 10.17 17.088zm-11.9-17.904h5.95c.99 0 1.87-.208 2.64-.624.8-.416 1.43-.992 1.87-1.728.48-.736.72-1.568.72-2.496 0-1.44-.52-2.608-1.58-3.504-1.02-.896-2.35-1.344-3.98-1.344h-5.62zm24.36 17.904v-33.6h21.27v6h-14.69v7.632h12.67v5.856h-12.67v8.112h14.88v6zm51.55 0-12.87-33.6h6.58l13.25 33.6zm-26.55 0 13.25-33.6h6.58l-12.87 33.6zm6.24-7.392v-5.808h21.08v5.808zm36.1 7.392v-27.6h-10.08v-6h26.69v6h-10.03v27.6zm20.93 0v-33.6h7.15l9.79 14.496 9.79-14.496h7.11v33.6h-6.53v-23.328l-10.37 15.264-10.37-15.216v23.28zm41.15 0v-33.6h21.27v6h-14.69v7.632h12.67v5.856h-12.67v8.112h14.88v6zm28.27 0v-33.6h6.86l16.42 22.56v-22.56h6.53v33.6h-6.53l-16.7-22.992v22.992zm44.23 0v-27.6h-10.08v-6h26.69v6h-10.04v27.6zm32.21.576c-1.7 0-3.28-.208-4.76-.624-1.47-.416-2.78-.992-3.93-1.728-1.15-.768-2.11-1.616-2.88-2.544-.74-.928-1.22-1.904-1.44-2.928l6.43-1.92c.42 1.088 1.15 2.032 2.21 2.832 1.05.768 2.38 1.168 3.98 1.2 1.7.032 3.07-.336 4.13-1.104 1.09-.768 1.63-1.76 1.63-2.976 0-1.056-.43-1.936-1.29-2.64-.84-.736-1.99-1.296-3.46-1.68l-4.37-1.152c-1.63-.416-3.07-1.04-4.32-1.872-1.25-.864-2.22-1.92-2.93-3.168-.7-1.248-1.05-2.704-1.05-4.368 0-3.168 1.04-5.632 3.12-7.392 2.11-1.792 5.09-2.688 8.93-2.688 2.14 0 4.01.32 5.61.96 1.63.608 2.99 1.488 4.08 2.64s1.92 2.512 2.5 4.08l-6.39 1.968c-.38-1.088-1.08-2.016-2.11-2.784-1.02-.768-2.32-1.152-3.89-1.152-1.6 0-2.86.368-3.79 1.104-.89.736-1.34 1.776-1.34 3.12 0 1.056.35 1.888 1.05 2.496.74.608 1.73 1.072 2.98 1.392l4.42 1.104c2.88.704 5.12 1.968 6.72 3.792s2.4 3.856 2.4 6.096c0 1.984-.48 3.728-1.44 5.232-.96 1.472-2.36 2.624-4.18 3.456s-4.03 1.248-6.62 1.248zm-397.48 66.424v-33.6h6.57v33.6zm-22.13 0v-33.648h6.57v33.648zm4.89-14.16v-6.048h20.36v6.048zm54.39 14.16-12.87-33.6h6.58l13.25 33.6zm-26.55 0 13.25-33.6h6.58l-12.87 33.6zm6.24-7.392v-5.808h21.08v5.808zm31.29 7.392v-33.6h6.58v33.6zm13.88 0v-33.6h12.48c2.37 0 4.46.464 6.29 1.392 1.82.928 3.24 2.208 4.27 3.84 1.02 1.6 1.53 3.472 1.53 5.616 0 2.112-.54 4-1.63 5.664-1.05 1.632-2.51 2.912-4.37 3.84-1.85.896-3.96 1.344-6.33 1.344h-5.67v11.904zm18.48 0-7.78-13.488 5.04-3.6 10.18 17.088zm-11.91-17.904h5.96c.99 0 1.87-.208 2.64-.624.8-.416 1.42-.992 1.87-1.728.48-.736.72-1.568.72-2.496 0-1.44-.53-2.608-1.59-3.504-1.02-.896-2.35-1.344-3.98-1.344h-5.62zm50.64 18.48c-3.27 0-6.16-.736-8.69-2.208-2.53-1.504-4.51-3.552-5.95-6.144-1.44-2.624-2.16-5.632-2.16-9.024s.72-6.384 2.16-8.976c1.44-2.624 3.4-4.672 5.9-6.144 2.53-1.504 5.42-2.256 8.69-2.256 2.3 0 4.45.416 6.43 1.248 1.98.8 3.71 1.936 5.18 3.408 1.51 1.44 2.66 3.104 3.46 4.992l-6.1 2.256c-.54-1.184-1.26-2.208-2.16-3.072-.89-.896-1.92-1.584-3.07-2.064-1.15-.512-2.4-.768-3.74-.768-1.95 0-3.7.496-5.23 1.488-1.51.96-2.69 2.288-3.56 3.984-.83 1.696-1.24 3.664-1.24 5.904s.43 4.224 1.29 5.952c.87 1.696 2.07 3.04 3.6 4.032 1.54.96 3.3 1.44 5.28 1.44 1.38 0 2.63-.256 3.75-.768 1.15-.544 2.16-1.28 3.02-2.208.9-.928 1.62-2 2.16-3.216l6.1 2.208c-.8 1.952-1.96 3.68-3.46 5.184-1.47 1.504-3.2 2.672-5.18 3.504-1.99.832-4.15 1.248-6.48 1.248zm35.3 0c-3.39 0-6.4-.736-9.02-2.208-2.59-1.504-4.62-3.552-6.1-6.144-1.47-2.624-2.2-5.616-2.2-8.976 0-3.424.73-6.432 2.2-9.024 1.48-2.624 3.49-4.672 6.05-6.144 2.59-1.472 5.57-2.208 8.93-2.208 3.39 0 6.37.752 8.93 2.256 2.59 1.472 4.62 3.52 6.09 6.144 1.48 2.592 2.21 5.584 2.21 8.976 0 3.36-.73 6.352-2.21 8.976-1.44 2.592-3.45 4.64-6.04 6.144-2.56 1.472-5.51 2.208-8.84 2.208zm0-6c2.05 0 3.84-.48 5.38-1.44 1.57-.992 2.78-2.336 3.65-4.032.89-1.696 1.34-3.648 1.34-5.856 0-2.24-.45-4.208-1.34-5.904-.9-1.696-2.13-3.024-3.7-3.984-1.57-.992-3.39-1.488-5.47-1.488-2.02 0-3.82.496-5.42 1.488-1.57.96-2.8 2.288-3.7 3.984s-1.34 3.664-1.34 5.904c0 2.208.44 4.16 1.34 5.856s2.14 3.04 3.74 4.032c1.6.96 3.44 1.44 5.52 1.44zm22.43 5.424v-33.6h6.86l16.42 22.56v-22.56h6.52v33.6h-6.52l-16.71-22.992v22.992zm48.4.576c-1.69 0-3.28-.208-4.75-.624s-2.78-.992-3.94-1.728c-1.15-.768-2.11-1.616-2.88-2.544-.73-.928-1.21-1.904-1.44-2.928l6.44-1.92c.41 1.088 1.15 2.032 2.2 2.832 1.06.768 2.39 1.168 3.99 1.2 1.69.032 3.07-.336 4.13-1.104 1.08-.768 1.63-1.76 1.63-2.976 0-1.056-.43-1.936-1.3-2.64-.83-.736-1.98-1.296-3.45-1.68l-4.37-1.152c-1.63-.416-3.07-1.04-4.32-1.872-1.25-.864-2.23-1.92-2.93-3.168s-1.06-2.704-1.06-4.368c0-3.168 1.04-5.632 3.12-7.392 2.12-1.792 5.09-2.688 8.93-2.688 2.15 0 4.02.32 5.62.96 1.63.608 2.99 1.488 4.08 2.64s1.92 2.512 2.49 4.08l-6.38 1.968c-.38-1.088-1.09-2.016-2.11-2.784-1.03-.768-2.32-1.152-3.89-1.152-1.6 0-2.86.368-3.79 1.104-.9.736-1.35 1.776-1.35 3.12 0 1.056.36 1.888 1.06 2.496.74.608 1.73 1.072 2.98 1.392l4.41 1.104c2.88.704 5.12 1.968 6.72 3.792s2.4 3.856 2.4 6.096c0 1.984-.48 3.728-1.44 5.232-.96 1.472-2.35 2.624-4.17 3.456-1.83.832-4.04 1.248-6.63 1.248zm31.03.096c-2.78 0-5.2-.544-7.25-1.632s-3.63-2.608-4.75-4.56c-1.09-1.984-1.63-4.32-1.63-7.008v-21.072h6.57v21.072c0 1.44.29 2.704.87 3.792.61 1.056 1.44 1.872 2.49 2.448 1.09.576 2.36.864 3.8.864s2.68-.288 3.74-.864c1.09-.576 1.92-1.392 2.5-2.448.6-1.088.91-2.352.91-3.792v-21.072h6.57v21.072c0 2.688-.57 5.024-1.72 7.008-1.12 1.952-2.72 3.472-4.8 4.56-2.05 1.088-4.48 1.632-7.3 1.632zm20.64-.672v-33.6h6.58v27.6h14.78v6zm28.67 0v-27.6h-10.08v-6h26.69v6h-10.03v27.6zm41.11 0-12.86-33.6h6.58l13.24 33.6zm-26.54 0 13.25-33.6h6.57l-12.86 33.6zm6.24-7.392v-5.808h21.07v5.808zm36.1 7.392v-27.6h-10.08v-6h26.69v6h-10.04v27.6zm20.92 0v-33.6h6.58v33.6zm29.24.576c-3.39 0-6.4-.736-9.02-2.208-2.6-1.504-4.63-3.552-6.1-6.144-1.47-2.624-2.21-5.616-2.21-8.976 0-3.424.74-6.432 2.21-9.024 1.47-2.624 3.49-4.672 6.05-6.144 2.59-1.472 5.57-2.208 8.93-2.208 3.39 0 6.36.752 8.92 2.256 2.6 1.472 4.63 3.52 6.1 6.144 1.47 2.592 2.21 5.584 2.21 8.976 0 3.36-.74 6.352-2.21 8.976-1.44 2.592-3.46 4.64-6.05 6.144-2.56 1.472-5.5 2.208-8.83 2.208zm0-6c2.05 0 3.84-.48 5.38-1.44 1.56-.992 2.78-2.336 3.64-4.032.9-1.696 1.35-3.648 1.35-5.856 0-2.24-.45-4.208-1.35-5.904-.89-1.696-2.12-3.024-3.69-3.984-1.57-.992-3.39-1.488-5.47-1.488-2.02 0-3.83.496-5.43 1.488-1.57.96-2.8 2.288-3.69 3.984-.9 1.696-1.35 3.664-1.35 5.904 0 2.208.45 4.16 1.35 5.856.89 1.696 2.14 3.04 3.74 4.032 1.6.96 3.44 1.44 5.52 1.44zm22.42 5.424v-33.6h6.86l16.42 22.56v-22.56h6.53v33.6h-6.53l-16.7-22.992v22.992z" fill="#000"/></svg>